<svg width="21" height="20" viewBox="0 0 21 20" fill="none" xmlns="http://www.w3.org/2000/svg">
<g id="phone">
<path id="Vector" d="M18.8334 14.1V16.6C18.8344 16.8321 18.7868 17.0618 18.6939 17.2744C18.6009 17.4871 18.4645 17.678 18.2935 17.8349C18.1225 17.9918 17.9206 18.1112 17.7007 18.1856C17.4809 18.2599 17.2479 18.2875 17.0168 18.2666C14.4525 17.988 11.9893 17.1118 9.82511 15.7083C7.81163 14.4289 6.10455 12.7218 4.82511 10.7083C3.41676 8.53432 2.54031 6.05914 2.26677 3.48331C2.24595 3.25287 2.27334 3.02061 2.34719 2.80133C2.42105 2.58205 2.53975 2.38055 2.69575 2.20966C2.85174 2.03877 3.04161 1.90224 3.25327 1.80875C3.46492 1.71526 3.69372 1.66686 3.92511 1.66665H6.42511C6.82953 1.66267 7.2216 1.80588 7.52824 2.06959C7.83488 2.3333 8.03517 2.69952 8.09177 3.09998C8.19729 3.90003 8.39298 4.68558 8.67511 5.44165C8.78723 5.73992 8.81149 6.06407 8.74503 6.37571C8.67857 6.68735 8.52416 6.9734 8.30011 7.19998L7.24177 8.25831C8.42807 10.3446 10.1555 12.072 12.2418 13.2583L13.3001 12.2C13.5267 11.9759 13.8127 11.8215 14.1244 11.7551C14.436 11.6886 14.7602 11.7129 15.0584 11.825C15.8145 12.1071 16.6001 12.3028 17.4001 12.4083C17.8049 12.4654 18.1746 12.6693 18.4389 12.9812C18.7032 13.2931 18.8436 13.6913 18.8334 14.1Z" stroke="#0C0904" stroke-linecap="round" stroke-linejoin="round"/>
</g>
</svg>
