<svg width="86" height="60" viewBox="0 0 86 60" fill="none" xmlns="http://www.w3.org/2000/svg">
<g id="Xan Saray Logo">
<path id="Vector" fill-rule="evenodd" clip-rule="evenodd" d="M73.2793 39.7339C73.0946 40.0171 73.045 40.3791 73.13 40.8181C73.2094 41.1659 73.3348 41.4414 73.5082 41.6482C73.6816 41.855 73.875 41.9955 74.0871 42.072C74.2988 42.1467 74.5019 42.1636 74.6969 42.1188C74.9311 42.065 75.1229 41.9266 75.2731 41.7052C75.4238 41.4857 75.4793 41.1898 75.4418 40.8189C75.4342 40.759 75.4245 40.7034 75.4124 40.6503C75.3748 40.4856 75.312 40.3304 75.224 40.185C75.136 40.0395 75.0239 39.915 74.8863 39.8118C75.0177 39.6949 75.1483 39.6206 75.2783 39.5907C75.459 39.5493 75.6311 39.5771 75.798 39.6756C75.9646 39.7722 76.1104 39.9179 76.2336 40.1111C76.3583 40.304 76.4473 40.5205 76.502 40.7603C76.5568 41.0001 76.5678 41.248 76.535 41.5041C76.5008 41.7604 76.4079 41.9994 76.2552 42.2233C76.1022 42.4453 75.8804 42.633 75.5878 42.783C75.4912 42.8264 75.3926 42.8607 75.29 42.8842C75.1122 42.925 74.9357 42.94 74.76 42.9211C74.1983 42.8608 73.6225 42.8143 73.2188 42.3354C71.5741 40.3843 73.3467 39.6305 73.2793 39.7339ZM27.8786 19.3267C29.6013 28.2897 35.515 35.5092 43.0258 37.8003C50.5363 35.5092 56.4502 28.2897 58.1729 19.3267C56.0527 17.8322 56.4956 16.1228 56.9244 14.4676C57.3672 12.7574 57.825 10.9906 56.2096 8.70927C49.2427 10.5687 44.1087 8.02685 43.0258 7.42093C42.8185 7.53691 42.4623 7.72394 41.9737 7.93732L41.6316 7.44296L41.6275 7.43764C41.6265 7.43646 41.6256 7.43525 41.6247 7.43404L41.6245 7.26205C41.6244 7.21829 41.6236 7.17648 41.6215 7.13629C42.3827 6.81253 42.8067 6.5559 42.8217 6.54655L43.0253 6.4202L43.23 6.5468C43.2848 6.58067 48.7663 9.90026 56.2627 7.79412L56.5171 7.72274L56.6825 7.94177C58.7511 10.6791 58.1731 12.909 57.7091 14.7008C57.2853 16.3366 56.9987 17.4429 58.588 18.5751C59.0863 18.162 59.5509 17.7965 59.878 17.5514C60.0586 17.4163 60.2288 17.0937 60.1717 16.6266C60.1026 16.1829 60.8177 15.8401 60.9213 16.4886C60.938 16.5697 61.2356 15.9383 60.6825 15.7243C60.2922 15.5618 60.0411 16.1926 60.0084 16.2196C59.6234 16.5558 59.1803 15.2473 60.2275 14.9725C60.7802 14.8297 61.3165 15.2527 61.4698 15.7854C61.4977 15.3076 61.1658 15.0635 61.555 14.7466C61.8203 14.5301 62.2717 14.7953 62.0941 15.6418C64.0782 13.289 61.5713 11.0549 60.4321 12.511C59.8573 13.2461 61.1669 14.5931 61.4194 12.8829C61.451 12.6686 61.8585 12.7736 61.9976 13.1156C62.3944 14.015 60.8121 15.1617 59.9393 13.8503C59.215 12.806 60.1549 11.617 61.113 11.5302C62.3019 11.4221 63.3576 12.3199 63.3571 13.9291C63.3563 15.2504 62.3692 16.2876 61.1963 17.2336C62.9708 16.3637 64.1672 16.8576 64.6372 17.3944C65.1991 18.0361 64.913 18.7734 64.4311 18.3917C64.0406 18.0825 63.847 17.709 63.2254 17.5332C63.1973 17.5252 63.1784 17.5192 63.1603 17.5136C63.3858 17.6051 64.2617 18.0546 64.1106 19.1443C63.9351 20.6537 62.3365 20.9626 61.9748 19.8695C61.7738 19.2505 62.2 18.18 62.4777 19.2299C62.7319 20.1067 63.3462 19.645 63.4785 19.028C63.7317 17.819 61.7611 17.4075 60.5994 17.8743C60.3355 17.9761 60.0464 18.1419 59.7729 18.3219C59.5257 18.5088 59.2845 18.6951 59.0557 18.8825L59.0817 18.8991L59.027 19.2001C58.2289 23.6027 56.4305 27.7216 53.8258 31.1121C50.9744 34.8243 47.2776 37.4388 43.1348 38.6739L43.0258 38.7067L42.9168 38.6739C38.7741 37.4388 35.077 34.8243 32.2257 31.1121C29.6209 27.7216 27.8226 23.6027 27.0247 19.2001L26.971 18.9046C26.7343 18.7098 26.4838 18.5161 26.2271 18.3219C25.9534 18.1419 25.6645 17.9761 25.4002 17.8743C24.2386 17.4075 22.2682 17.819 22.5212 19.028C22.6535 19.645 23.2676 20.1067 23.522 19.2299C23.7997 18.18 24.2259 19.2505 24.0246 19.8695C23.6633 20.9626 22.0646 20.6537 21.8891 19.1443C21.738 18.0546 22.6139 17.6051 22.8391 17.5136C22.8216 17.5192 22.8025 17.5252 22.7743 17.5332C22.1527 17.709 21.9594 18.0825 21.5686 18.3917C21.0864 18.7734 20.8007 18.0361 21.3626 17.3944C21.8325 16.8576 23.029 16.3637 24.8034 17.2336C23.6306 16.2876 22.6436 15.2504 22.6429 13.9291C22.6421 12.3199 23.6977 11.4221 24.8868 11.5302C25.8445 11.617 26.7846 12.806 26.0604 13.8503C25.1878 15.1617 23.6056 14.015 24.0021 13.1156C24.1409 12.7736 24.5487 12.6686 24.5806 12.8829C24.8329 14.5931 26.1421 13.2461 25.5673 12.511C24.4285 11.0549 21.9215 13.289 23.906 15.6418C23.7281 14.7953 24.1795 14.5301 24.4447 14.7466C24.8342 15.0635 24.5023 15.3076 24.5299 15.7854C24.6828 15.2527 25.2195 14.8297 25.7723 14.9725C26.8194 15.2473 26.376 16.5558 25.991 16.2196C25.9586 16.1926 25.7078 15.5618 25.3171 15.7243C24.7641 15.9383 25.0618 16.5697 25.0787 16.4886C25.1821 15.8401 25.8973 16.1829 25.828 16.6266C25.7709 17.0937 25.9414 17.4163 26.1216 17.5514C26.454 17.8003 26.9281 18.1736 27.4354 18.5948C29.0558 17.4557 28.7684 16.3461 28.3425 14.7008C27.8781 12.909 27.3003 10.6791 29.369 7.94177L29.5344 7.72274L29.7888 7.79412C32.9852 8.69172 35.8149 8.60294 38.0143 8.20342C38.0893 8.49165 38.161 8.78076 38.2321 9.06998C35.9961 9.48444 33.1224 9.58479 29.8419 8.70927C28.2267 10.9906 28.6842 12.7574 29.1273 14.4679C29.5559 16.1228 29.9988 17.8322 27.8786 19.3267ZM45.7006 31.8137C45.6023 31.7052 45.5838 31.6326 45.7491 31.4512C45.7807 31.4166 45.7629 31.43 45.8007 31.3984C45.8398 31.3658 45.795 31.3858 45.8531 31.3681C45.8574 31.4729 45.8086 31.608 45.7642 31.7025L45.7006 31.8137ZM36.3017 14.3551C36.1988 14.7757 36.224 14.6721 36.1597 15.1056C36.1089 15.4478 36.0642 15.4846 35.9301 15.7398C35.9447 15.7639 35.9342 15.776 36.0113 15.8167C36.1497 15.6697 36.3711 15.1059 36.4531 14.8781C36.4498 14.8743 36.4443 14.8633 36.4428 14.8669C36.4413 14.8705 36.3033 14.7305 36.3127 14.657C36.3255 14.5569 36.3574 14.4131 36.4149 14.3609C36.4391 14.2794 36.4507 14.2935 36.4604 14.2568C36.4971 14.1174 36.4743 14.2217 36.4537 14.1784C36.3325 14.2098 36.3769 14.2891 36.3017 14.3551ZM36.132 16.7924C36.0397 16.8147 35.6466 17.2305 35.9254 17.4065C36.1771 17.5654 36.0356 17.1787 36.0356 17.1785C36.0193 16.9884 36.2218 17.0069 36.132 16.7924ZM37.7749 6.00518C37.7317 5.99389 37.7508 5.99849 37.7223 5.97813C37.7069 5.96719 37.6834 5.94334 37.6674 5.92994C37.5036 5.79375 37.5167 5.85248 37.4923 5.46388C37.4788 5.24809 37.4056 4.89521 37.4238 4.6927C37.5261 4.92752 37.7935 5.57904 37.8032 5.81778L37.7749 6.00518ZM38.111 5.85363C38.1487 5.72378 38.1848 5.7713 38.1216 5.64023L37.5006 4.2987C37.4659 4.22479 37.4351 4.14653 37.3989 4.07472C37.3286 4.0738 37.2767 4.10042 37.2069 4.13433C37.2668 4.59719 37.3793 5.19572 37.4315 5.63578C37.4773 6.02299 37.5328 5.84636 37.6892 6.07988C37.761 6.18721 37.6292 6.20725 37.7005 6.36122C37.8506 6.29462 37.6731 6.18811 37.9 6.1361C37.9526 6.13894 37.9726 6.14858 38.0098 6.16911L38.0082 6.25913C37.9617 6.38244 37.9162 6.28927 37.8207 6.41102C37.7678 6.47847 37.7976 6.42188 37.7711 6.49729C37.9091 6.61456 37.9094 6.71059 37.9737 6.99999C38.0173 7.1962 38.071 7.39986 38.1205 7.57643C38.3644 8.4453 38.6053 9.52232 38.8538 10.4471L38.9767 10.9447C38.9832 10.9585 38.9832 10.9593 38.9927 10.9734C39.0242 11.0203 38.974 10.9759 39.0278 11.0122C39.0742 10.9879 39.0495 11.0109 39.0808 10.9685C39.1498 10.8746 39.0518 10.6959 39.0052 10.4875C38.9016 10.0242 38.6934 9.29115 38.5654 8.80157C38.529 8.66279 37.9851 6.63252 37.9827 6.54039L38.081 6.49443C38.1423 6.61136 38.1973 6.92114 38.2376 7.06362C38.2891 7.24542 38.3461 7.45509 38.3914 7.65182C38.4805 8.03886 38.6019 8.42709 38.6906 8.81445C38.7364 9.01441 38.7829 9.19711 38.8371 9.3952L39.138 10.5603C39.1928 10.7575 39.2217 10.9864 39.3368 11.0986C39.3253 11.1247 39.2781 11.1259 39.3246 11.2856L40.1339 14.4594C39.9956 14.395 39.8904 13.8687 39.8402 13.6641L39.375 11.9004C39.3444 11.7874 39.245 11.3197 39.1901 11.2555C39.1651 11.2262 39.1514 11.2163 39.1239 11.1805C39.1151 11.169 39.1055 11.154 39.0954 11.1437C39.0441 11.0917 39.1009 11.134 39.0354 11.0966C39.0444 11.3283 39.3354 12.2827 39.4088 12.6328C39.501 13.073 39.7307 13.8057 39.7951 14.18C39.5843 14.107 39.4909 13.7616 39.3919 13.5615C39.3327 13.4421 39.2636 13.3449 39.179 13.271C39.0496 13.1581 38.9577 13.1233 38.8909 13.0683C38.8947 12.9432 38.9773 12.7043 39.0051 12.5686C39.0543 12.3281 39.0687 12.3047 38.9071 12.1495C38.5681 12.2894 38.0654 12.8741 37.9804 12.9161C38.0237 12.7046 38.2443 12.674 38.2967 12.4881C38.1799 12.5025 38.0982 12.519 38.003 12.5716C37.8729 12.6435 37.8618 12.6942 37.8011 12.718C37.6809 12.4904 38.078 12.4971 38.0652 12.1847C37.9912 12.2029 37.9398 12.251 37.8578 12.292C37.542 12.4502 37.5175 12.4353 37.3242 12.7511C37.3202 12.7448 37.2735 12.751 37.3214 12.6201C37.3393 12.5711 37.3553 12.5443 37.351 12.4716C37.027 12.434 37.0193 12.7697 36.8791 12.9073C36.8065 12.4825 36.8248 12.5671 36.5557 12.2483C36.4763 12.1543 36.4803 12.0956 36.3733 12.1419C36.3456 12.1685 36.201 12.8292 36.2909 13.178C36.3063 13.2381 36.3161 13.2603 36.3395 13.3207C36.3584 13.3695 36.3803 13.419 36.3639 13.4614C36.2895 13.5852 36.2587 13.5415 36.268 13.7362C36.1296 13.8246 36.2183 13.7575 36.0818 14.0515C36.0461 14.1284 35.9345 14.3003 35.8806 14.3453C35.7918 15.036 35.8479 14.7193 35.6161 15.4474L35.4583 15.9663C35.3974 16.0339 35.4116 15.9576 35.3092 16.1548C35.2234 16.3205 35.3412 16.2524 35.2589 16.4202C35.0289 16.8893 34.8435 16.7441 35.0073 17.3928C35.0521 17.5706 35.0874 17.7611 35.167 17.9136C35.2797 18.1296 35.416 18.0916 35.6695 18.091C35.7152 18.1104 35.6932 18.2327 36.0515 18.2651C36.5141 18.3069 36.8868 18.0764 37.0145 17.5706L37.0369 17.5025C37.049 17.5195 37.1958 17.8117 37.1985 17.8317C37.2092 17.9105 37.1629 18.2193 37.1502 18.2956C37.1041 18.5701 37.0957 18.9417 37.0715 19.2302L37.0966 19.2989L37.1567 19.2419C37.1594 19.2395 37.1645 19.2343 37.1691 19.2316C37.2248 19.033 37.3138 18.2112 37.2978 17.9557C37.4725 18.061 37.5181 18.3487 38.018 18.2734C38.0064 18.4891 37.9722 18.5429 37.9212 18.713L37.9597 18.7372C38.0254 18.7864 38.0243 18.8057 38.049 18.9011C38.0687 18.9774 38.0752 19.1039 38.077 19.2085C38.0808 19.4462 38.042 19.6245 38.0383 19.8267C38.105 19.8026 38.0512 19.8396 38.1319 19.7342C38.1504 19.71 38.1463 19.714 38.165 19.6957L38.0798 20.6644C38.1808 20.6654 38.2095 20.5692 38.2572 20.4934C38.2964 20.4311 38.3428 20.3411 38.3826 20.2629C38.8595 19.3268 38.7691 18.8583 38.8711 18.5683C39.0409 18.6306 39.1542 18.5425 39.284 18.5481C39.4892 19.0071 39.4303 19.8776 39.4295 20.3768C39.8098 20.2628 39.9362 19.1693 39.8073 18.7193C39.7908 18.6621 39.7461 18.5262 39.7433 18.4889C39.9604 18.55 40.1118 18.6209 40.3645 18.4867C40.459 18.4366 40.4683 18.4051 40.536 18.39C40.6236 18.5244 40.6968 18.7028 40.7457 18.8744C40.7877 19.0213 40.8667 19.3363 40.8581 19.4886C40.5635 19.7028 39.9744 20.1672 39.701 20.4456C39.5457 20.6037 39.3288 20.8312 39.2004 21.0099C39.1614 21.0643 39.1475 21.0992 39.0881 21.1367C38.9993 21.0005 38.9592 20.8278 38.9373 20.6573C38.9118 20.4584 38.9028 20.3097 38.8987 20.0888C38.8373 20.0968 38.8236 20.0574 38.7654 20.2203C38.6986 20.407 38.615 20.6022 38.5903 20.8242C38.5694 21.0126 38.5751 21.1552 38.6211 21.3206C38.6442 21.4033 38.6516 21.4296 38.6934 21.5044C38.7383 21.5846 38.7749 21.5928 38.7681 21.7089C38.2255 21.6833 37.6027 21.138 37.358 20.5664C37.2892 20.4055 37.1742 20.0607 37.1881 19.8443C37.1575 19.801 37.1685 19.7746 37.1655 19.704L37.1236 19.6742C37.0202 19.5977 37.0772 19.6065 36.9895 19.5675C36.9935 19.7266 37.0276 19.6255 37.0519 19.7411C36.9389 19.7429 36.9492 19.5972 36.8749 19.7604C36.9508 19.7786 36.9747 19.7877 37.0185 19.8284C37.0279 19.9389 37.031 19.9456 36.9529 19.9926C36.9957 20.4899 37.0979 20.8598 37.3308 21.2204C37.4231 21.3633 37.5538 21.5474 37.6383 21.708C37.6757 21.7791 37.7492 21.913 37.7304 21.9984C37.7128 22.0785 37.6371 22.1974 37.5598 22.2301C37.4433 22.2211 37.2554 22.0244 37.1906 21.9523C36.973 21.7105 36.8066 21.4208 36.7096 21.0884L36.5818 20.5555C36.5803 20.5513 36.5777 20.544 36.5744 20.539C36.4212 20.6789 36.661 21.4807 36.7187 21.6398C36.7859 21.8251 36.9325 22.1095 37.045 22.2807C37.0752 22.3266 37.1509 22.4248 37.1786 22.4841C36.8515 22.4948 36.7351 21.8906 36.6395 21.6484C36.6302 21.7833 36.659 21.9013 36.6992 22.023C36.7559 22.1948 36.8146 22.2626 36.8429 22.3494C36.6833 22.2779 36.4857 22.0297 36.4193 21.8529L36.3491 21.6456C36.3464 21.6401 36.3418 21.6331 36.3395 21.6286C36.3371 21.6241 36.3332 21.6168 36.3293 21.6115C36.2487 21.8087 36.2898 21.9241 36.2867 22.1358C36.0422 21.8304 36.006 21.3255 36.16 20.9204C36.3146 20.514 36.5633 20.2738 36.8066 20.0071C36.7847 19.9267 36.8114 19.93 36.7595 19.909C36.6901 20.0013 36.8087 19.9622 36.6654 20.081C36.6129 20.1245 36.6147 20.1016 36.565 20.1483C36.5236 20.1873 36.5335 20.201 36.4968 20.2442L36.3433 20.4263C36.2885 20.4916 36.2333 20.5867 36.1853 20.6184C36.1724 20.7075 35.7118 21.2496 36.1043 22.0368C36.2051 22.2388 36.2897 22.2309 36.2075 22.5041C36.1158 22.8088 35.9889 23.0318 35.7714 23.239C35.6402 23.364 35.4118 23.4992 35.2353 23.5677C35.1234 23.6113 35.1283 23.6151 35.081 23.7274C34.8812 24.2023 34.8729 24.4018 35.0435 24.901C35.0669 24.9694 35.1267 25.0617 35.14 25.0993C35.2075 25.2908 34.9463 26.1579 35.1094 26.8149C35.1343 26.9154 35.1301 26.9806 35.1324 27.0938C35.1403 27.496 34.9808 27.4198 35.2782 27.7617C35.2493 27.8572 35.207 27.8329 35.2896 27.9529C35.4202 28.1424 35.5843 28.2452 35.6796 28.3972C35.7744 28.5484 35.765 28.6586 35.7971 28.8283C35.8885 29.3108 35.9781 29.2865 36.2783 29.4584C36.3925 29.5238 36.4775 29.641 36.5877 29.7057C37.0603 29.9827 37.6799 29.3868 37.2811 28.5552C37.1503 28.2826 36.9844 28.1043 36.7716 27.9606C36.7157 27.9228 36.6463 27.8772 36.5755 27.883C36.4642 27.8922 36.326 28.0995 36.2324 27.9115C36.1989 27.844 36.2432 27.7598 36.264 27.6827C36.3055 27.5291 36.3183 27.3188 36.288 27.1414C36.2749 27.0644 36.2501 27.0043 36.2189 26.9356C36.1839 26.8587 36.1387 26.8099 36.1147 26.754C36.3219 26.5648 35.8781 25.2237 36.2526 24.5586C36.4367 24.5494 36.3184 24.6611 36.5105 24.5477C36.6982 24.4368 36.9644 24.4536 37.1594 24.3825C37.2597 24.3458 37.356 24.2457 37.4075 24.2389C37.4191 24.4435 37.4118 24.7515 37.2984 24.8651C37.13 24.8211 37.1044 24.7579 36.9766 24.673C36.9185 24.6902 36.8568 24.7366 36.8134 24.7863C36.6805 24.9382 36.8456 25.2298 36.9432 25.3616L37.0806 25.4966C37.125 25.5463 37.0917 25.5179 37.1387 25.5606C37.2415 25.6541 37.228 25.714 37.3372 25.9348C37.3513 25.9634 37.3703 25.9944 37.3928 26.0225C37.6946 26.4002 37.604 26.3699 37.6859 26.8313C37.7437 27.1561 37.8493 27.4213 38.1028 27.5263C38.303 27.6092 38.2786 27.551 38.4506 27.7133C38.5355 27.7935 38.637 27.9016 38.7293 27.9757C38.9978 28.1911 39.2585 28.093 39.418 27.7917C39.5708 27.5033 39.5474 27.1948 39.4286 26.8804C39.3184 26.5888 39.1607 26.4005 38.7865 26.4255C38.7119 26.3457 38.6161 26.2169 38.5359 26.1498C38.932 26.0137 38.7372 25.7454 39.0278 25.4061C39.1699 25.5794 39.4284 25.8077 39.5981 25.945C39.7827 26.0945 40.0224 26.2918 40.2425 26.4044C40.2342 26.4605 40.1929 26.5947 40.1747 26.6669C39.9299 27.6363 40.6156 28.7973 41.119 29.5287L41.6047 30.1718C41.6461 30.2207 41.6877 30.2576 41.7147 30.3223C41.5613 30.4624 41.4773 30.5288 41.3609 30.7573C41.0899 31.2898 40.904 31.8648 40.5449 32.3396L40.1858 32.7738C40.0936 32.9031 40.1592 33.17 39.9493 33.338C39.692 33.5439 39.8379 33.4956 39.6682 33.8556L39.4431 34.2171C39.4218 34.2459 39.4164 34.2497 39.3982 34.278C39.3586 34.3397 39.39 34.2612 39.3583 34.3543C39.4478 34.6217 39.6921 34.6456 39.9722 34.6558C40.2467 34.6659 40.5183 34.6195 40.7346 34.5268C41.1634 34.3428 41.2284 34.1646 41.2856 33.6909C41.3066 33.5168 41.2422 33.482 41.0946 33.4575L41.1289 33.2192C41.4886 33.1229 41.4314 32.942 41.4598 32.5391C41.547 32.4826 41.6118 32.4122 41.6825 32.3497C41.7322 32.3057 41.7431 32.2906 41.7862 32.2463C41.8278 32.2036 41.8622 32.172 41.9025 32.1333L42.2245 31.811C42.5305 31.487 42.8793 31.1214 43.1165 30.7413C43.2157 30.5822 43.4048 30.3507 43.2732 30.152C43.2131 30.0612 43.1149 29.9931 43.0524 29.9333C42.5894 29.4899 42.6105 28.8699 42.7037 28.2066C43.0138 28.1593 43.1272 28.2476 43.3843 27.9269C43.5571 27.7115 43.5969 27.4993 43.7134 27.2624C43.8337 27.2956 43.9601 27.6276 44.2966 27.8687C44.9982 28.3716 44.59 28.6527 44.7754 29.3999C44.8267 29.6062 44.9217 29.7793 45.0252 29.9545C45.2542 30.3424 45.1571 30.1952 45.0488 30.5277C44.9441 30.8495 44.9738 31.3793 44.8955 31.5932C44.861 31.6872 44.8054 31.8013 44.7665 31.8854C44.5472 32.3601 44.2624 32.6301 44.1484 32.8816C44.0599 33.0769 44.0587 33.3018 43.9809 33.5216C43.9086 33.7256 43.8229 33.9232 43.7081 34.0683C43.6449 34.1483 43.5466 34.2073 43.5315 34.2905C43.5203 34.3517 43.5109 34.6088 43.5278 34.6641C43.6905 35.1966 45.1986 34.6149 45.2723 34.4752C45.297 34.3288 45.3248 34.1618 45.3142 34.0115C45.298 33.7826 45.2914 33.7569 45.1108 33.7006C45.0866 33.4459 45.2124 33.3665 45.3953 33.269C45.4015 32.2921 45.3542 32.9428 46.0005 31.7832C46.1547 31.5066 46.476 30.9561 46.4026 30.6085C46.3929 30.5626 46.3625 30.4757 46.3369 30.4222C46.3183 30.3832 46.249 30.2867 46.2342 30.251C46.1303 29.9999 46.3911 29.1786 46.3648 28.7985C46.3365 28.3882 46.2317 28.5632 46.3773 28.1787C46.5294 27.7769 46.6171 27.3399 46.7008 26.914C46.7259 26.7857 46.7105 26.7508 46.75 26.6769C46.8222 26.8217 46.8335 27.0193 46.8475 27.1796C46.8949 27.7183 46.8947 27.6503 47.1214 28.0949C47.2219 28.292 47.1871 28.3791 47.1946 28.6251C47.4774 28.619 47.3548 28.3678 47.4136 28.2522C47.6283 28.6101 47.5327 29.7896 48.1576 29.977C48.2584 29.883 48.1692 29.8674 48.1161 29.7677C48.0528 29.649 48.0452 29.5617 48.1062 29.447C48.1808 29.583 48.3014 30.0076 48.4453 30.2979C48.5367 30.4823 48.7875 30.9118 48.9626 30.978C48.9 30.573 48.7785 30.3657 48.7955 30.0201C49.1121 30.2262 49.0731 31.0624 49.3226 31.3155C49.3546 31.0108 49.1514 30.3102 49.1617 30.064C49.2173 30.1865 49.2164 30.3919 49.3663 30.4298L49.104 29.0053C49.094 28.9713 49.0782 28.938 49.0727 28.9108C49.0584 28.8389 49.0648 28.8482 49.0827 28.8202C49.1856 28.8549 49.146 28.9257 49.1903 29.0002C49.2364 29.0777 49.1677 29.0254 49.213 29.0209C49.2539 28.9855 49.2208 29.0438 49.2489 28.9503C49.3935 28.4699 49.0794 27.9624 48.8856 27.632C48.8298 27.5431 48.4862 27.1168 48.6271 27.0635C48.6317 27.0618 48.6386 27.0576 48.6445 27.0557C48.7156 27.0332 48.6039 27.056 48.68 27.0458C48.7399 27.0379 48.7768 27.0658 48.8562 27.0887C48.8408 27.0065 48.8163 26.9504 48.7855 26.8792C48.7552 26.8089 48.7197 26.7766 48.6639 26.7345C48.4749 26.562 48.2749 25.9527 48.0342 25.5892L48.0178 25.5646C48.0131 25.5574 48.0009 25.5389 47.9931 25.5269C47.6038 24.9331 47.0307 24.6974 47.0221 24.5692C47.0206 24.5474 47.0212 24.5405 47.0233 24.5188L47.174 23.0702C47.2025 22.775 47.2105 22.8061 47.0814 22.6189L47.0693 22.9778C47.0439 23.5275 46.927 25.0667 46.75 25.5075C46.6999 25.4927 46.5994 25.2106 46.5537 25.1083C45.3772 22.3455 46.5373 25.1647 45.1598 21.7532C44.7582 20.717 43.992 18.7076 43.8206 17.5461C43.7609 17.1414 43.6884 16.6813 43.8334 16.2989C43.8903 16.1492 44.0035 15.9787 44.1019 15.8763C44.2199 15.7534 44.3462 15.6579 44.5349 15.6392C44.558 15.7562 44.5992 15.8419 44.6895 15.9004C44.7064 15.9114 44.7115 15.9127 44.7288 15.9227L44.7824 15.9553C44.695 16.0255 44.6026 15.9871 44.4145 16.1906C44.3394 16.2718 44.2179 16.4341 44.1865 16.5703C44.1091 16.9058 44.1233 17.349 44.2083 17.6871C44.3772 18.3585 44.5222 19.0058 44.7441 19.6335C44.9593 20.2422 45.1639 20.8384 45.4003 21.4293C45.5143 21.7141 45.6382 22.0114 45.7513 22.3028C46.1657 23.3701 46.3704 23.5362 46.7431 24.772C46.7778 24.7412 46.7617 24.7649 46.7835 24.7143L46.8355 24.449C46.9362 23.703 46.9349 23.099 46.9968 22.375C47.006 22.2677 47.0066 22.1656 47.0071 22.0524L47.0188 21.5339C47.019 21.4464 47.0018 21.4226 47.0517 21.3783C47.1118 21.4181 47.0884 21.408 47.0871 21.5997C47.0851 21.8703 47.0716 22.1532 47.088 22.4219L47.1884 22.3967L47.1819 21.3958C47.3151 21.5181 47.3577 22.1035 47.6826 22.2319C47.6715 22.1564 47.6632 22.1611 47.6495 22.0987C47.628 22 47.6224 22.032 47.675 21.9989L47.7464 22.2306C47.7652 22.3887 47.6598 22.2999 47.58 22.2497C47.6361 22.5472 47.6442 22.5718 47.8968 22.7175C47.9698 22.7596 48.0765 22.8135 48.1563 22.8484C48.2416 22.8857 48.3923 22.9223 48.4562 22.9572C48.4877 23.2444 48.399 23.3816 48.3137 23.5982C48.2307 23.8089 48.2915 24.0729 48.4213 24.2041C48.5329 24.3168 48.708 24.4194 48.8383 24.5547C48.8946 24.6132 48.9595 24.7219 49.0178 24.7524C49.0974 24.794 49.2387 24.7461 49.3552 24.7579C49.4398 24.9792 49.382 25.7177 49.3608 25.9866C49.7241 25.8929 50.0807 25.3564 50.3289 25.0673L50.5393 24.8197C50.6518 24.7095 50.7716 24.6734 50.8768 24.577C51.0074 24.4575 51.0865 23.1619 51.076 22.9782C51.0389 22.3341 50.8565 23.0005 51.0299 21.9798C51.159 21.22 51.0073 20.2031 50.4265 19.6642L50.0918 19.4024C50.0278 19.2647 50.1282 18.2928 49.4179 17.7082C49.3438 17.6472 49.3027 17.6156 49.2143 17.5583C49.0764 17.4691 48.8996 17.4381 48.8148 17.298C48.7241 17.1481 48.6414 17.0562 48.4842 16.9409C48.2052 16.7363 47.8773 16.6254 47.5452 16.5508C46.963 16.4201 47.0756 16.6113 46.642 16.1351C46.3687 15.8349 46.2341 15.7511 45.8291 15.6031C45.7131 15.5607 45.417 15.4946 45.3361 15.4453C45.2711 15.4057 45.217 15.3506 45.1429 15.3064C44.9932 15.217 44.8051 15.1705 44.6365 15.1422C44.4567 15.112 44.5378 15.122 44.4183 15.0254C44.2795 14.9133 44.1029 14.8862 43.9017 14.8707C43.8576 14.8483 43.7348 14.6004 43.7084 14.5607C43.5632 14.3427 43.6984 14.4348 43.7083 14.1889C43.7274 13.709 43.7169 13.1597 43.3955 12.8274L43.1997 12.6291C42.847 12.2975 42.9018 12.1632 42.8356 11.9562C42.8341 11.9514 42.8316 11.9436 42.8286 11.938L42.693 11.9709C42.6871 11.988 42.6806 12.0077 42.6769 12.0231C42.6681 12.0593 42.6651 12.0946 42.6557 12.1323C42.6457 12.172 42.6144 12.2675 42.5964 12.3033C42.4488 12.598 42.1366 12.7864 41.9731 13.0787C41.6711 13.6186 41.9574 13.9314 41.9165 14.2204C41.8944 14.3762 41.9624 14.4838 41.9616 14.6411C41.7871 14.8118 41.7716 14.7593 41.6866 15.0345C41.3593 15.1172 41.5112 15.1796 41.3633 15.3131C41.2214 15.4412 41.1494 15.3701 41.0698 15.6203C40.9671 15.9433 40.9452 16.3479 40.9007 16.6918C40.8252 16.6829 40.8804 16.7188 40.8161 16.6468C40.7477 16.5703 40.7174 16.4623 40.6786 16.3646C40.6823 16.3609 40.6904 16.3531 40.6927 16.3577C40.6951 16.3622 40.7038 16.3523 40.707 16.3509L40.752 16.3326C40.7566 16.3305 40.7627 16.3277 40.7668 16.3257L40.7958 16.3104C40.659 16.0767 40.6587 15.6391 40.5743 15.3762C40.5403 15.2702 40.4913 15.1959 40.4551 15.0935C40.5051 15.0061 40.5579 14.9699 40.4807 14.8518C40.3908 14.7142 40.4192 14.8237 40.3611 14.6129C40.3077 14.4194 40.2651 14.2355 40.2199 14.0554C40.1257 13.6801 40.0453 13.2958 39.9371 12.9123C39.8463 12.591 39.5236 11.1118 39.4342 10.9531C39.393 10.88 39.3233 10.829 39.2959 10.7482C39.3865 10.7516 39.3198 10.7684 39.4085 10.8121C39.3978 10.6964 39.3968 10.755 39.3646 10.6614C39.3346 10.5741 39.3533 10.5788 39.3363 10.4944C39.2504 10.0674 38.7971 8.56082 38.815 8.36031C39.1106 8.21177 40.3841 7.73112 40.6889 7.63412C40.8641 7.57833 40.9506 7.58847 41.0512 7.7334C41.1763 7.91344 41.1774 8.09767 41.3456 8.2362C41.3957 8.27745 41.4497 8.3155 41.5262 8.3317L41.256 7.68704C41.1654 7.53526 40.9881 7.41689 40.8875 7.26213C40.8546 7.21149 40.8614 7.24265 40.8609 7.17714C41.0584 7.28535 41.0607 7.27201 41.2041 7.46219C41.243 7.5137 41.303 7.58735 41.3441 7.63484C41.4029 7.7026 41.4469 7.7658 41.5448 7.78497L41.417 7.60043C41.2758 7.41681 41.2312 7.1701 41.1031 6.98865C41.0468 6.90896 40.9633 6.84539 40.9063 6.74922C41.1743 6.87939 41.1964 7.10685 41.3587 7.26237C41.3584 7.01798 41.3339 6.8865 41.2072 6.72615C41.18 6.69165 41.1624 6.67623 41.1226 6.64421C40.7349 6.33247 40.7788 6.49564 40.5954 5.98258C40.5227 5.77929 40.4655 5.65836 40.2274 5.69219C39.443 5.80372 38.4053 6.33538 38.2337 6.34358C38.3057 6.18182 38.2335 6.05339 38.0937 5.99542C38.0687 5.90254 38.075 5.93875 38.111 5.85363ZM35.8195 27.0181C35.8374 27.0978 35.8927 27.1013 35.9282 27.1899C36.0143 27.2641 36.0753 27.703 35.7894 27.8063L35.684 27.8479C35.7058 27.9501 35.7574 28.037 35.825 28.0916C36.0168 28.2465 35.8778 28.1303 35.9957 28.3169C36.1291 28.5283 36.3593 28.3085 36.6113 28.3697C36.7332 28.3993 37.0431 28.8304 36.7083 29.1344C36.6378 29.1985 36.5036 29.2246 36.5252 29.3129C36.5305 29.3162 36.5389 29.3132 36.5422 29.3208C36.5499 29.3379 36.6348 29.3443 36.6993 29.3186C36.7336 29.305 36.7975 29.2631 36.838 29.2305C36.8809 29.1959 36.975 29.0986 37.0259 29.0846C37.2732 29.0171 37.1225 29.4766 36.7956 29.5926C36.5946 29.455 36.7071 29.4908 36.4029 29.3465C36.2529 29.2755 36.0651 29.1883 35.9867 29.0587L35.9243 28.8641C35.8607 28.5454 35.8394 28.4255 35.6452 28.1537C35.5302 27.9926 35.146 27.5705 35.2157 27.3017C35.3371 26.8338 35.1624 26.6157 35.2171 26.0653C35.3697 24.5308 35.0854 24.8143 35.0604 24.3349C35.0516 24.1655 35.1582 23.9367 35.2284 23.8184C35.3654 23.5876 35.6213 23.5589 35.9353 23.2436C36.2171 22.9605 36.2611 22.7807 36.3945 22.3759C36.4725 22.4375 36.5628 22.4744 36.6503 22.5264C36.6453 22.6382 36.4221 23.3283 36.1906 23.5155C35.8786 23.7678 35.4729 23.5721 35.3075 24.0776C35.2965 24.1112 35.5632 26.965 35.8195 27.0181ZM38.4689 27.5678C38.4563 27.4338 38.4648 27.5439 38.6202 27.3461C38.6568 27.2995 38.7447 27.1742 38.816 27.149C39.0093 27.0804 39.1872 27.3281 39.2126 27.4944C39.2386 27.6642 39.0028 27.9328 38.9033 27.8913C38.8469 27.8679 38.7514 27.6903 38.6136 27.6215C38.5497 27.5896 38.517 27.6039 38.4689 27.5678ZM40.4154 26.6708C40.4653 26.8576 40.4881 27.0802 40.5366 27.2658C40.588 27.463 40.6185 27.6637 40.7077 27.8355C40.9134 28.2316 41.1133 28.2002 41.1234 28.4936C41.1282 28.6339 41.144 28.6949 41.1731 28.8249C41.2563 29.1966 41.4848 29.5297 41.685 29.7639C41.9726 30.1005 42.0687 29.9126 42.3281 30.1728C42.4222 30.2673 42.4449 30.2606 42.5509 30.3254C42.4991 30.5966 42.063 31.1076 41.7801 31.2926C41.5745 31.4271 41.7367 31.4749 41.5736 31.9552C41.395 32.482 41.2139 32.3368 41.1624 32.4153C41.1009 32.703 41.2662 32.7759 41.0675 32.9855C40.9312 33.1293 40.8236 33.1744 40.5668 33.1823C40.5643 33.2035 40.5803 33.4393 40.5839 33.4925C40.7015 33.6361 40.8123 33.5897 40.8792 33.6648C40.8534 33.7528 40.7413 33.7832 40.637 33.7828C40.5252 33.7824 40.4157 33.7366 40.3012 33.7121C40.335 33.8703 40.4425 33.9259 40.3851 34.1326C40.2681 34.2392 39.9162 34.2889 39.718 34.2637C39.6697 33.9947 39.9194 33.6774 40.036 33.5164C40.1645 33.3392 40.1938 33.3911 40.2206 33.1482C40.2426 32.9488 40.4805 32.6695 40.6244 32.4894L41.0661 31.8404C41.1098 31.7666 41.2225 31.5819 41.251 31.4743C41.3149 31.4969 41.2656 31.4944 41.3365 31.5135C41.3501 31.0978 41.4587 30.7332 41.7472 30.483C41.8451 30.3982 41.9183 30.4558 41.9025 30.3051C41.8946 30.2299 41.7612 30.1149 41.7126 30.056L41.4462 29.6746C41.2909 29.4251 41.1944 29.1971 41.0805 28.924C40.9884 28.7031 41.0515 28.7451 40.8828 28.5537L40.5709 28.1128C40.4656 27.921 40.359 27.7198 40.3196 27.4754C40.2927 27.3088 40.2833 26.7238 40.4154 26.6708ZM43.9603 27.196C44.109 27.502 44.4768 27.516 44.6798 27.8413C44.7661 27.8206 45.0167 27.7946 45.0693 27.8619C45.2174 28.0516 44.8774 27.9716 44.8076 27.9854C44.8182 28.1012 44.9873 28.2219 45.0425 28.3649C45.1692 28.693 44.9566 29.0539 45.3308 29.3914C45.5485 29.5877 45.4366 29.5936 45.556 29.8186C45.5717 29.8098 45.6512 29.7799 45.6381 29.6826C45.6299 29.622 45.5909 29.6121 45.5573 29.5498C45.5568 29.3641 45.5928 29.2392 45.5511 29.0451C45.5284 28.9397 45.4676 28.688 45.5638 28.6285C45.6047 28.6025 45.5729 28.6077 45.6323 28.7207C45.7041 28.8574 45.8223 28.9881 45.8687 29.1146C45.9548 29.3498 45.899 29.5973 45.8397 29.8491C45.8144 29.9566 45.8795 30.044 45.8596 30.2182C45.8492 30.3096 45.8077 30.4753 45.7814 30.5592C45.7135 30.7755 45.6383 31.0163 45.5928 31.2379C45.5669 31.3641 45.5687 31.4948 45.5415 31.6128C45.4961 31.8097 45.2491 31.9086 45.0199 32.3719C44.797 32.8226 44.9884 32.9378 44.9884 33.0828C44.9883 33.2745 44.6893 33.4366 44.5388 33.4964C44.5282 33.6349 44.6033 33.7059 44.5455 33.8893C44.5076 34.0094 44.3905 34.071 44.3909 34.1455L44.5663 34.1751C44.5574 34.2964 44.5206 34.2881 44.423 34.319C44.3428 34.3444 44.3029 34.3623 44.2161 34.3744C44.0351 34.3998 43.9051 34.4 43.7234 34.3704C43.8735 34.2032 43.9033 34.2069 44.0158 33.9896C44.1085 33.8105 44.1211 33.588 44.1927 33.4455C44.38 33.0724 44.2932 33.1519 44.3824 32.9164C44.3951 32.883 44.58 32.6466 44.6649 32.4864C44.8354 32.1648 44.933 31.8152 45.0874 31.4728C45.2255 31.1667 45.1494 30.4971 45.3723 30.3187C45.2835 30.2367 44.8795 29.4227 44.8567 29.0768C44.8318 28.6986 44.9258 28.677 44.9157 28.5419C44.9066 28.4198 44.7951 28.2208 44.7326 28.1356C44.3652 27.6356 44.7535 27.9525 44.3345 27.657C44.2541 27.6003 43.9479 27.3741 43.9436 27.2612C43.9399 27.1604 43.938 27.2317 43.9603 27.196ZM45.3301 26.1458C45.3195 26.1564 45.3169 26.1613 45.2942 26.1799L44.9873 26.3433C44.4822 26.5162 44.5864 26.0149 44.9638 25.987C45.0871 25.9778 45.2773 26.063 45.3301 26.1458ZM45.0815 24.9394C45.1209 24.8816 45.1426 24.8695 45.2112 24.8463C45.2982 24.9813 45.5571 25.2149 45.6699 25.3204C45.8947 25.5309 45.6245 25.808 45.5283 25.9386L44.9895 25.8078C45.1483 25.6803 45.3702 25.7558 45.3229 25.4134C45.2924 25.1927 45.1562 25.1047 45.0815 24.9394ZM35.8733 25.1713C35.9265 25.1452 35.9099 25.125 35.9732 25.1088C35.963 25.2459 35.9505 25.2554 35.9011 25.3588C35.816 25.2703 35.8683 25.2419 35.7343 25.1064C35.6852 25.0567 35.6885 25.0743 35.6624 24.9923C35.646 24.9409 35.6367 24.8753 35.6309 24.8112C35.6193 24.6847 35.622 24.5286 35.6385 24.4027C35.6571 24.2602 35.7079 24.2089 35.8568 24.2299C36.0495 24.6355 35.7998 24.8588 35.8733 25.1713ZM38.59 24.1006C38.6385 24.1265 38.8541 24.4718 38.914 24.5648C38.9233 24.5793 38.9303 24.5894 38.9397 24.6026C38.9422 24.6061 38.9459 24.6111 38.9485 24.6145C39.2074 24.9709 39.5738 25.4456 39.9097 25.6972C39.9685 25.7412 40.0058 25.7689 40.0634 25.8125C40.1644 25.8889 40.2566 25.9469 40.377 26.0156C40.4753 26.0716 40.6463 26.1332 40.7316 26.189C40.3687 26.3464 39.6489 25.6589 39.4192 25.4478L38.609 24.6333C38.5565 24.5619 38.5743 24.5681 38.5792 24.3792C38.5816 24.2856 38.5869 24.1939 38.59 24.1006ZM40.5704 24.5502C41.1864 24.6284 41.0428 24.5174 41.3285 24.5149C41.3239 24.5699 41.2998 24.5985 41.2708 24.6287C41.207 24.6952 41.2001 24.6643 41.1887 24.7239C41.3276 24.8189 41.4609 24.7681 41.6042 24.7189C41.5453 24.8492 41.3569 24.9466 41.1969 24.9647C41.087 24.977 41.0299 24.9487 40.9247 24.93C40.7678 24.9021 40.5536 24.9872 40.4196 24.8706C40.2784 24.7479 40.0408 24.8027 39.8547 24.5262C40.2281 24.518 40.3505 24.5338 40.638 24.3631C40.6457 24.4814 40.6087 24.4689 40.5704 24.5502ZM37.5196 23.7703C37.3268 23.7872 37.1639 23.7364 36.9832 23.8084C36.8364 23.867 36.8357 23.9601 36.5736 23.819C36.5828 23.7936 37.0674 23.1664 37.3189 23.1889C37.4144 23.1974 37.4257 23.2508 37.4812 23.3209C37.5399 23.3949 37.557 23.3944 37.5631 23.5161C37.5676 23.6059 37.5596 23.705 37.5196 23.7703ZM38.6793 23.539L38.6797 23.3799C38.7681 23.4275 38.7487 23.4362 38.8168 23.5066L38.8375 23.5266C38.8418 23.5307 38.8545 23.542 38.8589 23.546L39.228 23.8425C39.2666 23.8699 39.2883 23.8848 39.3273 23.9071C39.3856 23.9403 39.3981 23.9404 39.4371 24.002C39.2651 23.9577 38.8494 23.7285 38.7187 23.5895L38.6793 23.539ZM42.923 23.0035C42.9428 23.2554 42.9832 23.5667 43.2158 23.667C43.2867 23.6976 43.3416 23.7272 43.4213 23.764C43.6428 23.8659 43.8179 23.9764 43.9928 24.1221C44.0507 24.1704 44.1165 24.2144 44.1434 24.3012C44.0739 24.2707 44.0106 24.2183 43.9406 24.1768C43.6916 24.0292 43.3224 23.8682 43.0456 23.781C42.9053 23.7367 42.9378 23.7478 42.8968 23.5926C42.8528 23.4262 42.838 23.1453 42.923 23.0035ZM43.0012 22.7121C43.2041 22.7976 44.3155 23.9615 44.498 24.1633C45.0622 24.7789 45.0836 24.5389 44.92 24.827C44.7101 24.7942 43.4186 23.2724 43.2252 23.05C43.2138 23.0368 43.2085 23.0301 43.1968 23.0154C43.1343 22.9371 42.9868 22.7842 43.0012 22.7121ZM38.0582 24.724L38.0529 24.9607L38.4272 25.0739C38.4106 25.0906 38.3808 25.1282 38.351 25.1438L38.2418 25.1702C38.2393 25.1707 38.2332 25.1711 38.2292 25.173C38.4701 25.6698 38.0289 25.8558 37.8887 26.1568C37.8019 26.343 37.9014 26.5938 38.0423 26.6633C38.2572 26.7694 38.3996 26.572 38.5158 26.4994C38.5486 26.838 38.4726 27.1213 38.1796 27.1717C37.6079 27.2702 37.9961 26.7387 37.6527 26.1744L37.4244 25.815C37.204 25.4601 37.7077 23.9244 37.6818 23.0852C37.676 22.8982 37.6338 22.799 37.682 22.6131C37.7149 22.4863 37.7601 22.3253 37.7917 22.1954C37.8342 22.0205 37.9064 22.0304 38.058 21.9433C38.1488 21.8911 38.3089 21.7755 38.3843 21.7428C38.6912 21.9006 38.6622 21.7469 38.8392 21.9085C38.8393 21.9086 38.8722 21.9371 38.8723 21.9372C39.0154 22.0574 39.243 22.2188 39.4708 22.255C39.9387 22.3294 40.5636 21.8927 40.7909 22.1816C40.2965 22.3657 39.7607 22.6427 39.1806 22.4028C38.9838 22.3214 38.9553 22.1934 38.7099 22.248C38.689 22.3506 38.7551 22.826 38.3568 22.5991C38.2348 22.5296 38.2329 22.4188 38.1823 22.3552C38.1555 22.3216 38.1637 22.3259 38.1228 22.3105C37.9682 22.5243 37.7021 23.1831 38.0223 23.2461C38.0702 23.1825 38.0707 23.082 38.1441 23.0017C38.2822 22.8505 38.6025 22.9648 38.4656 23.2393C38.3253 23.5205 38.0817 23.2209 38.0786 23.6241C38.0745 24.1526 38.198 24.1493 38.0582 24.724ZM43.5761 22.1601C43.6229 22.3256 43.8423 22.6308 43.9334 22.7858C44.0227 22.9376 44.2152 23.2795 44.237 23.4734C44.1332 23.4402 43.8464 23.2473 43.7495 23.1757C43.616 23.077 43.2832 22.7216 43.1628 22.5564C42.6739 21.8852 43.5444 21.6574 44.0435 21.9583C44.3269 22.1291 44.3256 22.4134 44.5501 22.6645C44.7378 22.8745 44.9206 23.1808 44.9461 23.4959C44.8926 23.5322 44.9091 23.5254 44.8603 23.5391C44.7242 23.2692 44.5891 22.9436 44.3893 22.7305C44.1426 22.4673 44.0879 22.5759 43.7335 22.0946C43.6595 22.1045 43.6181 22.1164 43.5761 22.1601ZM40.0217 22.0651C40.0281 21.7128 40.2896 21.7339 40.3473 21.5999C40.3417 21.5964 40.3332 21.5856 40.3295 21.5915L40.2543 21.5753C40.1905 21.5765 40.0569 21.6493 39.9941 21.6846C39.8365 21.7729 39.7501 21.8679 39.6915 21.8056C39.5601 21.666 39.9004 21.3337 39.9904 21.2537C40.1554 21.1067 40.3223 20.9945 40.5332 20.8885C41.0056 20.651 41.5492 20.6765 41.7753 21.1207C41.5964 21.105 41.5205 21.0535 41.3451 21.1534C41.0924 21.2974 41.413 21.3522 41.5328 21.3697C41.8789 21.42 41.9815 21.7325 41.7342 21.9561C41.5107 22.1582 41.1442 22.0116 40.9051 21.9323C40.4532 21.7824 40.3285 22.0156 40.0217 22.0651ZM43.0922 21.8024C43.1222 21.5628 43.098 21.4009 43.2271 21.2085L43.5401 20.7974C43.5123 21.0648 43.4261 21.1376 43.4528 21.4503C43.4656 21.6001 43.4265 21.6374 43.3367 21.6922C43.2823 21.7254 43.1702 21.7958 43.0922 21.8024ZM39.1686 22.0047C39.0521 22.009 38.9826 21.9363 38.925 21.837C38.8639 21.7318 38.9317 21.6271 38.9808 21.5263C39.8647 19.7107 42.5865 19.7525 42.7379 20.7919C42.1151 20.2393 41.3432 20.3513 40.6311 20.6646C39.9367 20.97 39.502 21.3238 39.1686 22.0047ZM42.816 20.2704L42.7228 20.273C42.6983 20.085 42.7305 19.9433 42.9349 20.0179C42.9501 20.2041 42.8123 20.0134 42.968 20.2897C43.0014 20.3491 42.9873 20.3187 43.0096 20.3865C43.0096 20.3864 43.0657 20.135 43.1211 20.3087C43.162 20.4372 43.0797 20.4857 43.0491 20.5443C43.0518 20.691 43.0655 20.9891 42.9846 21.0772C42.9697 21.0331 42.8983 20.2757 42.8599 20.1676C42.8377 20.1052 42.8489 20.1366 42.8286 20.1151C42.7901 20.1837 42.8179 20.186 42.816 20.2704ZM50.0629 19.6127C50.2673 19.6871 50.4899 20.0414 50.5897 20.2896C50.9473 21.179 50.803 22.6868 50.5634 23.533C50.4007 23.4356 50.108 23.1288 50.0103 22.9351C49.874 22.665 49.9376 22.1971 49.9821 21.8678C50.0317 21.5009 50.0762 21.1774 50.1004 20.7877C50.1171 20.5198 50.1216 19.8445 50.0629 19.6127ZM46.104 19.022C46.1725 19.0116 46.2008 18.9854 46.2774 19.002C46.163 19.2678 46.187 19.1929 46.3677 19.271C46.362 19.3315 46.3651 19.2941 46.3486 19.3388C46.3327 19.3822 46.3323 19.3687 46.3204 19.4116C46.3075 19.4583 46.294 19.531 46.2861 19.5764C46.3966 19.632 46.5005 19.6573 46.5575 19.8036C46.4868 19.7692 46.3924 19.7601 46.288 19.7628C46.3175 20.0618 46.6402 20.2353 46.569 20.4063C46.4862 20.3078 46.3901 20.2502 46.2673 20.1906C46.2275 20.3244 46.3916 20.4314 46.3277 20.5949C46.2646 20.5285 46.305 20.5182 46.1925 20.43C46.1252 20.3772 46.0759 20.3008 45.9949 20.2765C46.0065 20.5453 46.1805 20.8499 46.026 21.0596C45.9736 20.9027 46.0666 20.9216 45.865 20.6098C45.6796 20.3231 45.8186 20.2521 45.7847 20.161C45.6831 20.2487 45.7046 20.3989 45.6417 20.6061C45.6347 20.6292 45.6233 20.6661 45.6134 20.6843C45.6095 20.6914 45.6006 20.7053 45.5957 20.7122C45.5642 20.7561 45.5903 20.7207 45.5603 20.752C45.567 20.602 45.5739 20.4808 45.5729 20.3283C45.5724 20.2478 45.6167 20.0169 45.6037 19.9951C45.5103 20.0879 45.4958 20.2302 45.3788 20.2991C45.3926 20.2105 45.4146 20.1245 45.4384 20.0442C45.475 19.9209 45.5115 19.9173 45.5321 19.8342C45.411 19.8489 45.3033 19.9466 45.2047 19.8764C45.2428 19.7943 45.2223 19.9155 45.3783 19.7424C45.4968 19.6109 45.477 19.665 45.553 19.6179C45.4917 19.4342 45.1351 19.5851 45.0781 19.2369C45.1635 19.2828 45.1793 19.3288 45.2974 19.31C45.338 19.3036 45.4883 19.2492 45.5162 19.2301C45.4873 19.1558 45.513 19.2086 45.4693 19.1596C45.3749 19.0538 45.2986 19.0486 45.1909 18.9185C45.1253 18.8393 45.0897 18.7437 45.0908 18.6332C45.1638 18.8053 45.3381 18.8502 45.4627 18.9087C45.5227 18.9369 45.5536 18.9668 45.6037 18.9882C45.6545 18.8729 45.4834 18.6614 45.5036 18.3024C45.5048 18.2815 45.5064 18.262 45.5106 18.2416C45.5208 18.192 45.5139 18.2163 45.5279 18.1896C45.5667 18.2606 45.5742 18.4227 45.6237 18.5394L45.7371 18.7417C45.8075 18.8326 45.7288 18.7717 45.8173 18.8074C45.8224 18.6673 45.79 18.5468 45.8451 18.4459C45.8808 18.532 45.925 18.778 45.9657 18.859C46.0725 18.7217 46.0105 18.3765 46.1636 18.2896C46.1319 18.4491 46.1242 18.4274 46.1336 18.6268C46.142 18.8058 46.1101 18.8818 46.104 19.022ZM41.8818 18.2801C42.4284 18.2845 43.0214 18.5475 43.1656 19.0155C43.0855 18.9977 43.0874 18.9832 43.0452 19.0146C43.1244 19.1013 43.1633 19.1787 43.1704 19.3193C43.0448 19.213 43.0595 19.1017 42.5805 18.7832C42.2401 18.5569 41.9987 18.5793 41.7715 18.4917C41.8627 18.4373 41.8612 18.4946 41.9721 18.4196L41.9945 18.4026C42.0218 18.3873 42.0554 18.383 42.0901 18.3766C42.0164 18.3123 41.9495 18.3322 41.8818 18.2801ZM43.3459 18.0823C43.4384 18.1076 43.4234 18.1388 43.5629 18.2044C43.6496 18.2451 43.7429 18.2603 43.818 18.3036C43.8398 18.3727 43.8715 18.4621 43.8541 18.536C43.7017 18.5126 43.3811 18.222 43.3459 18.0823ZM35.7627 18.0586C35.9351 18.0409 36.192 18.0869 36.3303 18.0497C36.5323 17.9954 36.5079 17.8349 36.6138 17.7238C36.6333 17.9047 36.447 18.0801 36.3143 18.1544C36.1765 18.2314 35.7865 18.2099 35.7627 18.0586ZM49.8383 19.8119C49.836 19.9439 49.812 20.1161 49.8241 20.2391C49.8563 20.5648 49.8138 20.3959 49.7935 20.5896C49.7755 20.7611 49.7785 21.2442 49.6458 21.3182C49.5702 21.153 49.6888 20.3339 49.5452 20.1151L49.5258 20.18C49.5245 20.1856 49.524 20.192 49.5226 20.1978L49.505 20.2651C49.4195 20.2562 49.4163 20.2211 49.4346 20.1211C49.4511 20.0303 49.4831 20.0474 49.5299 19.9841L49.4882 19.8119C49.3728 19.5976 49.1678 19.0122 49.1293 18.7729C49.096 18.5659 49.0739 18.3574 49.0285 18.1527C48.9854 17.9584 48.9024 17.7295 48.8774 17.5627C49.2135 17.6242 49.5531 18.0172 49.7057 18.3267C49.8854 18.6912 49.8599 19.3543 49.8383 19.8119ZM37.0892 17.3341L37.2581 17.2383C37.5388 17.4619 37.6053 17.6395 38.1644 17.7892C38.5771 17.8997 39.0871 17.8857 39.5311 17.8519C40.2821 17.7947 40.7186 17.7388 41.4363 17.5629C41.5158 17.5434 41.6384 17.5046 41.715 17.476C41.8037 17.4429 41.9182 17.3889 42.0074 17.3708C41.9246 17.7254 41.5091 18.4452 40.9849 17.9297C40.9295 17.8753 40.8853 17.8224 40.7975 17.8198C40.5252 17.8117 40.5614 18.3018 40.1933 18.3401C39.6413 18.3977 39.7509 17.8932 39.4951 17.9365C39.2359 17.9804 39.3569 18.4815 38.8461 18.4106C38.4407 18.3544 38.4818 17.8772 38.2128 17.945C38.0492 17.9861 37.836 18.4837 37.4234 17.9333C37.4165 17.9241 37.4004 17.8987 37.3903 17.8823L37.0892 17.3341ZM41.4797 16.9679C41.5903 16.8934 41.8092 16.8654 41.9675 16.855C41.9665 17.0539 42.0054 17.0653 42.0241 17.2264C41.9747 17.2527 41.7122 17.3267 41.6219 17.3537C41.4947 17.3917 41.4516 17.1155 41.4797 16.9679ZM42.7964 17.2367L42.7814 17.1411L43.2234 16.9917C43.3653 17.3366 43.2586 17.2749 43.3033 17.4748C43.3399 17.6393 43.3068 17.569 43.2988 17.6829C43.2904 17.8009 43.3656 17.7502 43.323 17.9335C43.2394 17.9587 42.8585 17.9592 42.8106 17.8885C42.6912 17.7122 43.1195 17.8626 43.223 17.7175C43.0492 17.5956 42.7613 17.857 42.7229 17.5632C42.8528 17.5708 43.0276 17.5708 43.1473 17.5285C43.2269 17.5003 43.2148 17.5195 43.2342 17.4419C43.1889 17.4115 43.2383 17.4311 43.1695 17.4154C43.0371 17.3851 42.7169 17.4737 42.5689 17.4983C42.5805 17.3725 42.6877 17.3854 42.7708 17.3542C42.912 17.3014 42.9292 17.322 43.09 17.3106C43.1105 17.2636 43.0202 17.3413 43.0925 17.246C43.1413 17.1816 43.1152 17.2637 43.1762 17.1833C43.1559 17.1619 43.2145 17.1034 42.9717 17.1865C42.9109 17.2074 42.8627 17.2332 42.7964 17.2367ZM37.7468 16.8495C37.7459 16.9972 37.8455 17.3228 37.8897 17.4734C37.6369 17.4826 37.2024 17.1489 37.4852 16.9759C37.5405 16.942 37.6798 16.8732 37.7468 16.8495ZM42.1364 16.8318L42.6628 16.8055L42.6897 17.0494L42.2049 17.1748C42.1305 17.0873 42.093 16.973 42.1364 16.8318ZM40.9849 16.6068C41.1051 16.8247 41.281 17.2869 41.3883 17.3672C41.1924 17.3797 41.1561 17.2359 41.0954 17.1008C41.0573 17.016 41.0073 16.982 40.9894 16.9153C40.9694 16.8407 40.9827 16.6904 40.9849 16.6068ZM47.9393 16.8817C48.0051 16.8338 48.6115 17.071 48.7352 17.662C48.759 17.7759 48.7503 18.0204 48.6604 18.0888C48.6463 18.0652 48.4445 17.1517 47.9393 16.8817ZM42.8328 16.7799L43.271 16.671C43.3226 16.7393 43.3421 16.8283 43.3429 16.9413C43.2432 16.9227 43.3118 16.8809 43.1826 16.9113C42.9194 16.9732 42.9215 17.0525 42.8554 16.9622C42.8169 16.9096 42.8128 16.8392 42.8328 16.7799ZM43.6128 17.1725C43.5197 17.1015 43.4296 16.7993 43.448 16.6447L43.633 16.5695C43.6291 16.6834 43.6097 16.7877 43.6028 16.8811C43.5964 16.9664 43.624 17.1333 43.6128 17.1725ZM37.1149 16.5981C37.1355 16.7041 37.1961 16.7045 37.1576 16.7967C37.0951 16.8274 37.0867 16.8068 37.0417 16.7476C36.9904 16.68 36.9585 16.576 37.0504 16.5825C37.1048 16.5864 37.0212 16.585 37.1149 16.5981ZM36.3351 16.6231C36.3504 16.7421 36.3886 16.7255 36.3847 16.9033C36.2784 16.9966 36.2928 16.9497 36.2329 17.0983C36.2143 17.1446 36.1853 17.1832 36.1762 17.2305C36.1726 17.2492 36.1948 17.5795 35.9562 17.555C35.832 17.5423 35.8093 17.4133 35.7068 17.4803C35.6977 17.5738 35.9793 17.708 35.589 17.6962L35.5705 17.5796C35.5214 17.6109 35.545 17.6208 35.4936 17.588C35.4779 17.578 35.4406 17.5326 35.4299 17.5009C35.4029 17.4212 35.4218 17.3039 35.4154 17.2155C35.2792 17.2072 35.3529 17.2632 35.2836 17.3743C35.2369 17.4493 35.2161 17.4238 35.1931 17.4893L35.1884 17.5149C35.181 17.5609 35.2109 17.4951 35.1868 17.5545C35.039 17.5426 35.0798 17.3893 35.0734 17.2482C35.0625 17.0086 35.0134 17.0591 35.1376 16.8716C35.187 16.797 35.2708 16.6908 35.3131 16.6082C35.3836 16.4709 35.3364 16.3639 35.4579 16.2887C35.7796 16.0896 36.2282 16.1387 36.4363 16.3423C36.5362 16.4401 36.3832 16.5618 36.3351 16.6231ZM42.069 16.0965C42.1465 16.1563 42.2678 16.1804 42.3506 16.2946C42.4169 16.3862 42.4483 16.5601 42.4371 16.6995C42.2245 16.7133 42.0442 16.7933 42.0308 16.3221C42.0269 16.1875 42.0248 16.1998 42.069 16.0965ZM42.7079 16.6852C42.6108 16.6431 42.6035 16.5295 42.583 16.44C42.5615 16.3465 42.5213 16.2054 42.6399 16.1618C42.8401 16.0879 42.7976 16.547 42.7079 16.6852ZM43.1958 16.5155C43.107 16.5662 43.0236 16.5847 42.9206 16.571C42.8757 16.2873 42.958 16.164 43.1762 16.1134C43.1145 16.3597 43.1856 16.3484 43.1958 16.5155ZM39.1375 15.9043C39.4228 16.0695 39.6731 16.303 39.8509 16.6031C39.9611 16.7891 40.2257 17.3924 40.248 17.6551C39.9699 17.7526 39.7629 17.7552 39.4363 17.7525C39.2467 17.2415 39.3509 17.3932 39.0168 16.8929C38.9518 16.7956 38.867 16.6938 38.8733 16.6132C38.9855 16.5766 39.0258 16.5914 39.0566 16.6819C39.1191 16.6514 39.0806 16.616 39.1485 16.6111C39.2512 16.7201 39.2944 16.7221 39.4149 16.9202C39.4576 16.9906 39.4424 16.9984 39.5444 16.9815C39.5391 16.8112 39.4609 16.5145 39.3952 16.3823C39.3315 16.2543 39.3151 16.2405 39.2289 16.1713C39.1414 16.101 39.1322 16.0443 39.1375 15.9043ZM35.4327 16.2057C35.5091 16.0739 35.5278 16.0022 35.6941 15.9663C35.8017 15.9431 36.0598 15.9559 36.1433 15.9984C36.0676 16.0802 35.9036 16.0678 35.7748 16.0937C35.6671 16.1154 35.5136 16.1922 35.4327 16.2057ZM46.9913 20.5834C46.9757 20.5526 46.9046 19.9428 46.8943 19.8544C46.7895 18.9581 46.5031 18.0588 46.1852 17.2293C46.1404 17.1122 46.1068 17.0434 46.0622 16.9314C45.8694 16.4466 45.5034 15.9396 44.9489 15.9867C44.9625 15.8179 45.0742 15.8038 45.2077 15.8456C45.4981 15.9365 45.6889 15.9054 45.9765 16.3531C46.4572 17.1016 46.8605 18.8183 46.9553 19.7669C46.966 19.8742 47.0526 20.5066 46.9913 20.5834ZM41.2994 16.8666C41.2963 16.8622 41.2918 16.85 41.2904 16.8533C41.2891 16.8567 41.2834 16.8431 41.2816 16.8403C41.1077 16.5689 41.0487 16.5406 41.0994 16.2805L41.1964 15.7354C41.2222 15.6651 41.2542 15.6433 41.2794 15.5807L41.3411 15.6507C41.3564 15.6679 41.3528 15.6647 41.3726 15.6845L41.4093 15.7183C41.301 16.1554 41.2774 16.3633 41.2994 16.8666ZM43.692 16.3216C43.6174 16.3764 43.5918 16.4049 43.4721 16.417L43.4179 16.3364C43.3839 16.2504 43.3915 16.0398 43.4282 15.9707C43.4403 15.9478 43.6193 15.8226 43.7117 15.7157C43.7089 15.8681 43.6276 15.8331 43.6552 15.9932C43.6778 16.1246 43.7209 16.1215 43.692 16.3216ZM45.3271 15.6157C45.6191 15.6599 45.9175 15.7732 46.1476 15.9111C46.3037 16.0047 46.6907 16.3085 46.7395 16.4709C46.1421 16.4431 46.0953 16.2576 45.6438 15.8702C45.5617 15.7998 45.3587 15.6611 45.3271 15.6157ZM38.2435 16.2666C38.147 16.1893 38.0821 16.1509 38.1243 15.9777C38.1376 15.9226 38.1568 15.8585 38.1769 15.7951C38.1986 15.7266 38.2036 15.6726 38.2205 15.6096C38.2426 15.5275 38.2756 15.5336 38.3155 15.473C38.3911 15.3586 38.4493 15.1441 38.5854 15.0206C38.758 15.0773 38.8841 15.4631 38.7334 15.7493C38.6419 15.923 38.4114 16.1985 38.2435 16.2666ZM41.441 15.4719C41.5899 15.5628 41.42 15.6458 41.9394 16.0199C41.9302 16.1009 41.8888 16.1763 41.8787 16.2995C41.8512 16.6351 42.0002 16.6282 41.7193 16.6841C41.6601 16.6958 41.5735 16.7145 41.5082 16.6982C41.3397 16.6562 41.399 16.0342 41.4468 15.8753C41.5492 15.5352 41.3684 15.5906 41.441 15.4719ZM40.2614 15.5305C40.4956 15.5601 40.6042 15.6608 40.5998 15.9117C40.5417 15.8677 40.5049 15.7939 40.4467 15.7287C40.4229 15.7021 40.394 15.6717 40.3658 15.6427L40.2614 15.5305ZM43.8405 15.9753C43.7675 15.4344 44.3668 15.1412 44.8878 15.3467C45.0744 15.4204 45.1122 15.475 45.2535 15.558C45.1943 15.5533 45.1382 15.531 45.0717 15.5135C44.9943 15.4933 44.92 15.4888 44.8396 15.4874C44.1811 15.4761 43.9862 15.9148 43.8405 15.9753ZM37.1149 16.5981C37.1808 16.51 37.313 16.3931 37.3839 16.3058L37.8851 15.6575C37.9677 15.5552 38.0797 15.3989 38.1638 15.3454C38.1795 15.4612 38.1455 15.4822 38.1346 15.6108C38.1174 15.812 37.9935 15.8265 37.8672 15.8969C37.7875 15.9414 37.7876 15.9819 37.7431 16.0664C37.4262 16.6679 37.5132 16.2842 37.3459 16.4791L37.2027 16.634C37.1744 16.6205 37.1519 16.6108 37.1149 16.5981ZM42.0241 14.799C42.0643 15.1185 41.9319 15.1654 42.1068 15.3708C42.2428 15.5305 42.3069 15.5514 42.3891 15.7905C42.0907 15.6904 42.0693 15.5351 41.8714 15.2348C41.8367 15.1822 41.8162 15.1254 41.8417 15.0482C41.8621 14.9863 41.9817 14.8472 42.0241 14.799ZM40.1511 14.845C40.3576 14.9039 40.3969 15.2021 40.4742 15.4084L40.4903 15.4499C40.3144 15.3631 40.1851 15.0378 40.1511 14.845ZM42.9214 15.664C43.194 15.7105 43.4946 15.0631 43.8542 15.0151C44.022 14.9928 44.1837 15.0381 44.2314 15.183C43.8681 15.2132 43.7834 15.2966 43.5493 15.5862C43.3882 15.7855 43.3938 15.7662 43.1697 15.8689C42.9785 15.9566 42.9946 16.0145 42.8889 16.1906C42.819 16.1514 42.805 16.06 42.7041 16.0391C42.5779 16.013 42.5429 16.0896 42.4867 16.1511C41.9636 16.1117 41.2174 15.2702 41.6823 15.177C41.7563 15.4046 41.8195 15.3954 42.0443 15.6329C42.1712 15.767 42.2483 15.8525 42.4072 15.8841C42.562 15.915 42.4303 15.9056 42.547 15.9565C42.6002 15.8968 42.545 15.9536 42.5782 15.8574C42.5974 15.8019 42.6565 15.7458 42.6932 15.702C42.7191 15.6711 42.7409 15.6457 42.7593 15.6218C43.0295 15.2695 43.023 15.4295 43.3471 15.0241C43.3489 15.0218 43.373 14.9897 43.3741 14.9882C43.3756 14.9861 43.4331 14.9039 43.4338 14.9021C43.4686 14.8198 43.4274 14.7629 43.4682 14.6364C43.5632 14.6039 43.7379 14.6906 43.5224 14.9321C43.3294 15.1484 43.363 15.2589 43.0331 15.5489C43.005 15.5735 42.9317 15.6131 42.9214 15.664ZM42.6167 14.6411C42.6376 14.4289 42.8092 14.659 42.8134 14.6619C42.9061 14.7274 42.9832 14.6698 43.088 14.7919C43.0805 14.8734 43.0204 14.9152 42.9843 15.0018C42.934 15.1227 42.9724 15.0432 42.8487 15.1825L42.6475 15.1775C42.6116 15.2501 42.6932 15.1951 42.6417 15.2606C42.6158 15.2936 42.5647 15.2957 42.5161 15.318C42.4241 15.3602 42.3255 15.4464 42.3359 15.2469C42.2221 15.2342 42.1293 15.2296 42.1657 15.0977C42.1674 15.0913 42.1843 15.0447 42.1872 15.0334C42.219 14.911 42.1443 14.8791 42.238 14.8481L42.2671 14.8597C42.3577 14.9186 42.3009 14.9107 42.4781 14.934C42.4869 15.0298 42.4525 15.0137 42.4273 15.1081C42.4753 15.0523 42.4974 15.0373 42.5191 14.9337C42.717 14.874 42.7447 14.9076 42.7312 14.6842L42.6694 14.6579C42.644 14.6487 42.6557 14.6612 42.6167 14.6411ZM38.6859 14.7226C38.7662 14.6361 38.703 14.5029 38.7664 14.4252C38.8555 14.4736 38.8724 14.6244 38.8705 14.7491C38.864 15.189 38.5286 15.0646 38.5582 14.6402C38.5673 14.5103 38.5994 14.5122 38.5971 14.3827C38.594 14.2151 38.5734 14.2316 38.6658 14.1823C38.697 14.2559 38.7173 14.3901 38.7104 14.4913C38.6955 14.7095 38.6168 14.5081 38.6859 14.7226ZM42.6823 14.3816C42.6915 14.3087 42.6907 14.3339 42.6818 14.2622L42.6546 14.1584C42.6532 14.1545 42.6507 14.1472 42.6476 14.1423C42.5299 14.1672 42.6284 14.1377 42.5666 14.2081C42.525 14.2554 42.6056 14.2148 42.5269 14.2471C42.5234 14.2408 42.5196 14.2239 42.5185 14.2269L42.5032 14.1449C42.5109 14.001 42.6476 14.0571 42.7683 14.0427C42.8059 14.1102 42.7931 14.0949 42.8527 14.1343L42.8862 14.0304C43.0185 13.9921 42.9205 14.0462 43.0498 14.039C43.0834 13.9816 43.0552 14.0309 43.069 13.9713L43.09 13.8869L43.1504 13.8892C43.2445 14.1666 43.0138 14.0981 42.9502 14.2097C42.9144 14.2726 42.9201 14.3501 42.923 14.4255L42.945 14.5216C43.0343 14.5208 42.9948 14.4923 43.1018 14.5183C43.0644 14.8203 42.7686 14.4908 42.6844 14.4796C42.483 14.4529 42.2468 14.5219 42.153 14.7166C42.1484 14.7125 42.1412 14.7003 42.1391 14.7043L42.0957 14.6515C42.082 14.6241 42.0802 14.5944 42.0759 14.5682C42.0585 14.4615 42.0429 14.4564 42.0279 14.3801C42.0097 14.2869 42.0521 14.0471 42.0845 13.9824C42.1851 13.9993 42.1209 14.0182 42.1264 14.1409C42.2627 14.2189 42.2254 14.2262 42.2856 14.1225C42.3448 14.2016 42.3684 14.2142 42.3853 14.2748C42.3418 14.3333 42.3522 14.3002 42.2974 14.3506C42.2848 14.3623 42.2785 14.3705 42.2717 14.379C42.3335 14.4934 42.3246 14.4422 42.4305 14.4199C42.5308 14.3989 42.6335 14.4315 42.6823 14.3816ZM38.9437 14.1653C38.8298 13.9919 38.8818 14.0782 38.9977 13.6401L39.0278 13.5518C39.1159 13.6911 39.0418 14.035 38.9437 14.1653ZM43.1859 13.6455C43.3122 13.6383 43.5217 13.6597 43.5922 13.7364C43.6364 13.7845 43.6257 13.898 43.6265 13.9739C43.6277 14.0977 43.6375 14.112 43.5726 14.1865C43.4836 14.164 43.4166 14.0149 43.3459 13.9356C43.2646 13.8443 43.1557 13.8213 43.1859 13.6455ZM42.116 13.7147L42.2743 13.6782L42.2666 13.8137C42.2418 13.8025 42.2166 13.7945 42.1893 13.7817C42.052 13.7172 42.1532 13.7565 42.116 13.7147ZM42.4491 13.789C42.3787 13.5654 42.5961 13.6001 42.8132 13.6265C42.8668 13.633 42.9205 13.6256 42.9823 13.6311L42.9889 13.7146L42.8686 13.736L42.8596 13.8951C42.7837 13.9007 42.772 13.9166 42.7594 13.8412C42.7472 13.7693 42.7686 13.7168 42.786 13.6538C42.7007 13.6756 42.6922 13.6856 42.6216 13.7301C42.503 13.8049 42.5377 13.7968 42.4491 13.789ZM36.0009 14.6194C36.0025 14.213 36.0142 14.495 36.2337 13.9958C36.3273 13.7828 36.2676 13.6977 36.6749 13.5711C37.0317 13.4078 37.4839 13.397 37.833 13.5854C37.8459 13.7513 37.6575 14.038 37.5484 14.1544C37.4004 14.3121 37.1716 14.2209 37.0183 14.4923L36.8116 14.8807C36.8792 14.8426 36.9359 14.7781 37.0148 14.7352C37.0148 14.7354 36.8759 15.0259 36.9766 15.12C36.994 15.1362 37.3501 15.19 37.4704 15.0416C37.5833 14.9022 37.4397 14.8307 37.5125 14.6989C37.5192 14.6866 37.5328 14.6656 37.5436 14.6467C37.5801 14.5823 37.5706 14.5874 37.6253 14.5431C37.6181 14.8801 37.651 15.0911 37.4345 15.3247C37.2168 15.5597 37.1431 15.4523 37.0365 15.5463C36.9535 15.6196 36.8093 15.8148 36.7645 15.9016C36.6973 16.0319 36.7959 16.0328 36.7353 16.1516C36.6382 16.1379 36.7053 16.1028 36.5102 16.0247C36.4116 15.9852 36.354 15.9654 36.2437 15.9384C36.0341 15.887 35.8385 15.8782 35.5995 15.9001C35.6168 15.7853 35.6532 15.6706 35.6851 15.5616C35.7156 15.4571 35.7384 15.3445 35.7781 15.2328C35.8761 14.9571 35.9903 14.9347 36.0009 14.6194ZM38.1714 13.6065C38.219 13.5799 38.213 13.5656 38.2636 13.5338C38.3553 13.604 38.5187 13.738 38.4245 13.8576C38.3752 13.838 38.2405 13.6752 38.1714 13.6065ZM36.6388 13.413C37.1594 13.2488 37.2999 13.3371 37.6183 13.2932C37.7463 13.2756 37.6186 13.2466 37.8085 13.2715C37.8883 13.282 37.9692 13.274 38.0436 13.2977C38.0466 13.2987 38.2743 13.4055 38.1919 13.505C38.1695 13.532 38.1445 13.5425 38.1228 13.5551C38.0511 13.5285 37.9638 13.4001 37.7609 13.3684L37.7571 13.3895C37.7569 13.3926 37.7566 13.4036 37.7567 13.4062C37.757 13.4187 37.7628 13.4117 37.7609 13.4214C37.5176 13.4375 37.3798 13.3021 36.8823 13.4066C36.8181 13.4201 36.6936 13.4604 36.6388 13.413ZM42.4063 14.2181C42.2812 14.0646 42.2751 13.2885 42.4063 13.1573C42.5971 13.2124 42.3585 13.3789 42.4381 13.9411C42.4537 14.0511 42.4698 14.142 42.4063 14.2181ZM37.4859 13.1937C37.6744 12.9697 37.7371 12.9833 37.8438 13.0658C37.892 13.1031 37.9149 13.128 37.9349 13.2111L37.4859 13.1937ZM42.4552 13.0468C42.4631 12.9905 42.4909 12.9274 42.5146 12.8826C42.5785 12.7621 42.6852 12.6762 42.7372 12.4961C42.7879 12.7061 42.8205 12.9153 42.8197 13.1546C42.8186 13.5035 42.8089 13.5322 42.4989 13.5691C42.5216 13.4269 42.6061 13.2322 42.5634 13.0859L42.4552 13.0468ZM36.6504 13.3057C36.674 13.2235 36.7774 13.1187 36.8526 13.0906C36.9267 13.063 36.9626 13.0958 37.0212 13.0542C37.0677 13.0211 37.0587 12.9708 37.0974 12.9098L37.4132 12.9269L37.3243 13.1379C37.2985 13.1998 37.3313 13.178 37.2782 13.2043C36.9988 13.204 36.8818 13.2664 36.6504 13.3057ZM36.4121 12.9606C36.4113 12.5931 36.4261 12.1995 36.68 12.6106C36.7782 12.7696 36.7821 12.9659 36.6561 13.1143L36.4703 13.273C36.4342 13.1649 36.4124 13.1096 36.4121 12.9606ZM42.3955 13.0131C42.3315 13.1718 42.3155 13.0192 42.3086 13.261C42.3056 13.3658 42.325 13.5249 42.2684 13.5865C42.2306 13.6275 42.0584 13.6665 42.0262 13.628C41.9343 13.5183 42.1187 12.816 42.5019 12.7686L42.3955 13.0131ZM42.8426 12.6259C42.847 12.6302 42.8527 12.6356 42.8558 12.6388C43.0707 12.8662 43.2018 13.1464 43.1656 13.4859L42.8743 13.4911C42.8765 13.1551 42.8703 12.957 42.8426 12.6259ZM38.0565 13.2242C38.041 12.9996 38.2248 12.8906 38.4053 12.7695C38.4891 12.7133 38.5071 12.6831 38.5661 12.6635C38.5333 12.8198 38.4406 12.9252 38.3907 13.0787C38.3364 13.2457 38.2861 13.2842 38.1564 13.2535C38.1282 13.2468 38.095 13.2412 38.0565 13.2242ZM38.1733 6.54039C38.2842 6.47321 38.518 6.39355 38.6534 6.33596C39.0855 6.15208 39.7433 5.88618 40.1942 5.84197C40.2521 5.94989 40.2742 6.12942 40.3191 6.25431C40.3661 6.38492 40.4187 6.51031 40.4719 6.62963C40.5548 6.81585 40.7402 7.21508 40.6942 7.46187C40.5269 7.51789 40.3316 7.56532 40.1571 7.62112C39.9858 7.67592 39.8326 7.73298 39.643 7.79926L38.6457 8.18806C38.5788 8.06834 38.4688 7.52692 38.4173 7.34682L38.1733 6.54039ZM41.0488 8.3064C40.5145 8.50062 39.8903 8.69625 39.1867 8.86625C39.1727 8.81118 39.1591 8.75604 39.1459 8.70087C39.1348 8.65485 39.1172 8.5872 39.1029 8.52135C39.1654 8.4948 39.2286 8.46953 39.2896 8.44473C39.4733 8.36996 39.6582 8.29784 39.8434 8.22681C40.1456 8.11095 40.4612 7.98617 40.7693 7.88809C40.782 7.88408 40.8045 7.87684 40.8238 7.87259C40.8273 7.87736 40.8306 7.88206 40.8332 7.88567C40.8788 7.95141 40.9067 8.03265 40.9382 8.1059C40.9699 8.17961 41.0048 8.24596 41.0488 8.3064ZM29.054 19.7946C29.8663 23.4593 31.501 27.0213 33.6672 29.8412C36.1795 33.1116 39.4145 35.4561 43.0258 36.6249C46.6374 35.4561 49.872 33.1113 52.384 29.8412C54.5507 27.021 56.1854 23.4591 56.9977 19.7946C54.9336 17.9354 55.4965 15.7616 55.9098 14.1661C56.2914 12.6934 56.5954 11.5206 55.7438 9.98197C54.2454 10.3253 52.7252 10.4994 51.2221 10.4994C47.2157 10.4994 44.2229 9.26221 43.0258 8.67344C42.3568 9.00249 41.1268 9.53403 39.4725 9.93898C39.4281 9.77173 39.3827 9.60471 39.3376 9.43761C40.3146 9.20002 41.1401 8.91695 41.7854 8.65898L41.9679 8.69761L41.9275 8.60138C42.3457 8.42971 42.6804 8.2719 42.9224 8.15004L43.0258 8.09773L43.1294 8.15004C44.2201 8.69958 47.1926 9.97795 51.2221 9.97795C52.7465 9.97795 54.2894 9.79473 55.8082 9.43319L55.9747 9.39399L56.0662 9.54786C57.1421 11.359 56.7714 12.7901 56.3788 14.3054C55.9725 15.8733 55.4673 17.825 57.4207 19.492L57.5407 19.5941L57.5062 19.7543C56.6896 23.5509 55.0045 27.2511 52.76 30.1726C50.1701 33.5442 46.8281 35.9559 43.0952 37.1469L43.0258 37.1691L42.9566 37.1469C39.2239 35.9561 35.8819 33.5442 33.2912 30.1726C31.0473 27.2511 29.3618 23.5513 28.5453 19.7543L28.5108 19.5941L28.6308 19.492C30.5842 17.825 30.0789 15.8733 29.6724 14.3057C29.28 12.7901 28.9091 11.359 29.9852 9.54786L30.0768 9.39399L30.2433 9.43319C31.7618 9.79473 33.305 9.97795 34.8294 9.97795C36.1304 9.97795 37.3209 9.8446 38.3738 9.64565C38.4156 9.81423 38.4578 9.98258 38.501 10.1506C37.4119 10.3591 36.1782 10.4994 34.8294 10.4994C33.3266 10.4994 31.8059 10.3253 30.3076 9.98197C29.4563 11.5206 29.7598 12.6934 30.1416 14.1661C30.555 15.7616 31.1182 17.9354 29.054 19.7946ZM16.7339 44.0144C16.1385 43.7651 15.6803 43.6368 14.9825 43.7722C14.2241 43.9145 13.616 44.3713 13.1509 45.1466C13.0165 45.3754 12.8893 45.6047 12.7693 45.8347L12.3658 46.6088L12.7396 47.7318C12.8417 48.0383 12.9509 48.3455 13.0671 48.6534C13.4701 49.6991 14.0325 50.3846 14.7608 50.7165C14.9935 50.8244 15.209 50.8944 15.4064 50.9236C15.6952 50.9596 16.0531 50.914 16.4789 50.7841C16.4872 50.8365 16.4856 50.9004 16.4703 50.9714C16.458 51.0444 16.4092 51.1315 16.3318 51.2359C16.2515 51.3383 16.1383 51.4449 15.9951 51.5578C15.851 51.6681 15.6662 51.759 15.4398 51.8281C15.0493 51.9472 14.6037 51.9561 14.1011 51.8554C13.1867 51.6726 12.4415 51.1525 11.8663 50.2978C11.5861 49.8812 11.3436 49.4347 11.1378 48.9541C10.9832 49.2335 10.812 49.5212 10.6247 49.8163C10.372 50.2183 10.0755 50.5779 9.73313 50.8993C9.10304 51.4906 8.31758 51.782 7.37775 51.7718C6.95735 51.7673 5.63181 51.4976 5.01514 50.4953C5.61054 50.7445 6.06868 50.8728 6.76652 50.7375C7.52496 50.5952 8.13303 50.1384 8.59808 49.3631C8.73254 49.1343 8.85974 48.9049 8.97967 48.6749L9.92264 46.8662C9.92667 46.8585 9.93084 46.851 9.93491 46.8433L9.93505 46.8433L10.1939 46.3468L10.0479 45.908L10.0477 45.9081C10.0443 45.8978 10.0407 45.8878 10.0372 45.8775L9.23491 43.4675C9.13293 43.161 9.02375 42.8538 8.90751 42.5459C8.50445 41.5002 7.94213 40.8147 7.21377 40.4828C6.98105 40.3749 6.76556 40.305 6.5682 40.2757C6.27935 40.2397 5.92152 40.2853 5.49565 40.4152C5.48742 40.3628 5.48897 40.2989 5.50426 40.2279C5.51655 40.1549 5.56536 40.0679 5.64278 39.9635C5.72305 39.8611 5.83629 39.7544 5.97951 39.6415C6.12355 39.5312 6.30834 39.4402 6.5348 39.3712C6.92534 39.2521 7.37089 39.2432 7.87349 39.3439C8.78791 39.5267 9.53311 40.0468 10.1083 40.9015C10.4208 41.366 10.6863 41.8679 10.9065 42.4125C11.1288 42.9564 11.3228 43.4772 11.4876 43.9723L11.5371 44.121C11.6854 43.9409 11.8449 43.7708 12.0159 43.6104C12.646 43.0191 13.4314 42.7276 14.3713 42.7379C14.9799 42.7444 16.2829 43.1449 16.7339 44.0144ZM24.8622 41.4457C25.2351 41.4457 25.6383 41.5123 26.0657 41.6486C26.3903 41.75 26.6785 41.8878 26.9346 42.0619C27.1825 42.2421 27.3801 42.4752 27.5293 42.7598C27.6764 43.0459 27.7772 43.3472 27.8317 43.6666C27.8962 44.1012 27.9264 44.5069 27.9264 44.8824V44.949L27.9325 45.3441V46.9891C28.1617 47.0665 28.3834 47.1044 28.5975 47.1044C28.8307 47.1044 29.0699 47.0595 29.3181 46.9674C29.7188 46.8125 30.0118 46.5812 30.1912 46.2736C30.3307 46.0366 30.416 45.7918 30.4483 45.5391V44.8157C30.4483 44.6386 30.4907 44.4948 30.5734 44.3858C30.656 44.2768 30.7628 44.1859 30.8919 44.1133C31.0209 44.0406 31.1661 43.971 31.3233 43.9059C31.5007 43.8362 31.672 43.7514 31.8394 43.6561C32.0067 43.5592 32.1539 43.432 32.2809 43.273C32.2809 46.7914 32.2849 48.7096 32.297 49.029C32.305 49.3167 32.3575 49.6301 32.4502 49.9692C32.5449 50.3098 32.7183 50.6035 32.9703 50.8518C33.2223 51.1001 33.5892 51.2318 34.069 51.2469C34.452 51.2469 34.7706 51.1849 35.0286 51.0592C35.2866 50.9336 35.4802 50.7731 35.6112 50.5793C35.7402 50.3855 35.8067 50.1872 35.8067 49.9828C35.8067 49.7376 35.708 49.515 35.5124 49.3152C35.3189 49.1153 35.0225 48.9927 34.6254 48.9458C34.5609 48.9397 34.5004 48.9367 34.442 48.9367C34.2605 48.9367 34.0831 48.9639 33.9097 49.0184C33.7364 49.0729 33.5791 49.1562 33.438 49.2698C33.3473 49.1123 33.3009 48.9655 33.3009 48.8292C33.3009 48.64 33.3715 48.4749 33.5146 48.3311C33.6557 48.1873 33.8432 48.0753 34.0751 47.9965C34.3069 47.9163 34.5548 47.8769 34.8189 47.8769C35.083 47.8769 35.3451 47.9224 35.6052 48.0132C35.8652 48.1055 36.093 48.2524 36.2906 48.4552C36.4861 48.6581 36.6293 48.9215 36.7159 49.247C36.7381 49.353 36.7502 49.459 36.7502 49.5665C36.7502 49.7527 36.722 49.9313 36.6615 50.1024C36.4619 50.6474 36.0668 51.0759 35.4802 51.3892C34.8935 51.7027 34.2545 51.8586 33.561 51.8586C32.9824 51.8586 32.4502 51.7481 31.9664 51.527C31.6172 51.3554 31.3286 51.1503 31.1004 50.9115C30.6186 50.4072 30.4483 49.4593 30.4483 48.7906V47.5466C29.5061 47.9927 28.8931 48.229 27.9325 48.5387V49.2606C27.9325 49.4877 27.9932 49.7057 28.1139 49.9147C28.1487 49.9749 28.1895 50.0309 28.2371 50.0825L28.7793 50.7454C28.6686 50.9773 28.2606 51.6522 28.1865 51.8374C27.5958 51.5301 27.1523 51.2333 26.8559 50.9472C26.5576 50.6626 26.358 50.3523 26.2592 50.0191C26.1584 49.6846 26.106 49.2879 26.102 48.8292C26.102 48.6581 26.11 48.4855 26.1262 48.3114V45.3441L26.1141 44.7764C26.1141 44.3888 26.1 44.0194 26.0717 43.6666C26.0254 43.1474 25.8722 42.7507 25.6121 42.4782C25.477 42.3419 25.3238 42.2284 25.1505 42.1346C24.9771 42.0422 24.8078 41.9726 24.6424 41.9256C24.4772 41.8802 24.3018 41.853 24.1183 41.8423C23.9328 41.8318 23.7796 41.8257 23.6567 41.8257C23.6647 41.797 23.6849 41.7636 23.7192 41.7288C23.7534 41.694 23.8199 41.6546 23.9207 41.6138C24.0195 41.5729 24.1485 41.5335 24.3058 41.4987C24.465 41.4624 24.6485 41.4457 24.8622 41.4457ZM22.7693 51.8586C22.3179 51.8586 21.9635 51.75 21.708 51.5348C21.4527 51.3176 21.2721 51.0231 21.1686 50.6472C20.9969 51.0106 20.7679 51.303 20.4817 51.5244C20.1955 51.7479 19.8278 51.8586 19.3764 51.8586C19.0616 51.8586 18.7644 51.8022 18.4826 51.6894C18.2007 51.5787 17.9454 51.4095 17.7186 51.186C17.4654 50.9291 17.2738 50.6263 17.1483 50.2796C17.0206 49.9329 16.9568 49.5799 16.9568 49.2207C16.9568 49.0055 16.981 48.7904 17.0272 48.5795C17.1836 47.9592 17.4676 47.4558 17.8793 47.0673C18.2932 46.6788 18.7798 46.3405 19.3434 46.0523C19.6318 45.8998 19.9379 45.7494 20.2593 45.599C20.8142 45.3505 21.3382 45.0706 21.8313 44.7636C22.3223 44.4565 22.6768 44.0806 22.8926 43.6399V49.6676C22.8926 49.8765 22.908 50.0478 22.9432 50.1814C22.9784 50.3172 23.0467 50.4154 23.1524 50.4822C23.258 50.547 23.4122 50.5804 23.6147 50.5804C23.8195 50.5804 23.9956 50.5219 24.1365 50.4049C24.2774 50.2879 24.3875 50.1438 24.4646 49.9684C24.5416 49.7929 24.5879 49.6091 24.6011 49.417H25.1823C25.1118 49.9559 24.9842 50.384 24.7948 50.7015C24.6385 50.9751 24.4492 51.2049 24.2268 51.3928C23.8657 51.7041 23.3791 51.8586 22.7693 51.8586ZM19.9247 50.5971C20.0413 50.5971 20.1669 50.5678 20.3055 50.5052C20.5191 50.4008 20.671 50.242 20.7591 50.0352C20.8472 49.8264 20.8912 49.6113 20.8912 49.3857V46.1442L20.5433 46.3322C20.0194 46.6183 19.6429 46.9232 19.4139 47.2448C19.1189 47.6647 18.9691 48.2411 18.9691 48.9763C18.9691 49.5799 19.1078 50.0394 19.3831 50.3527C19.5239 50.5156 19.7045 50.5971 19.9247 50.5971ZM42.6623 51.8586C41.5008 51.8586 40.5954 51.4432 39.9481 50.6146C39.3028 49.784 38.9802 48.5546 38.9802 46.9246V45.927C38.9802 45.3968 39.0635 44.9418 39.23 44.5619C39.3965 44.18 39.615 43.8523 39.8857 43.5789C40.1562 43.3076 40.4497 43.0696 40.7661 42.8714C41.0825 42.671 41.3968 42.4894 41.7048 42.3266C42.0795 42.1346 42.4021 41.9405 42.6748 41.7443C42.9474 41.5502 43.1223 41.3227 43.1993 41.066C44.4357 41.9217 45.0539 42.7211 45.0539 43.4641C45.0539 43.7291 44.981 43.9901 44.8374 44.2468C44.6917 44.5035 44.5023 44.6997 44.2629 44.8353C44.0256 44.9731 43.7592 45.042 43.4616 45.042V44.6183C43.4616 44.3052 43.3991 44.0047 43.2763 43.7166C43.1514 43.4307 42.9495 43.2157 42.6685 43.0717C42.4979 42.9861 42.3314 42.9444 42.169 42.9444C42.0025 42.9444 41.8339 42.9861 41.6632 43.0717C41.3864 43.2157 41.1845 43.4307 41.0596 43.7166C40.9326 44.0047 40.8702 44.3052 40.8702 44.6183V46.8328C40.8702 47.2564 40.9076 47.7114 40.9826 48.1998C41.0575 48.6861 41.199 49.1328 41.403 49.5418C41.6091 49.9489 41.9025 50.2452 42.2855 50.4289C42.5977 50.5583 42.9474 50.623 43.3325 50.623C43.6177 50.623 43.9007 50.5896 44.1818 50.5228C44.4607 50.456 44.7042 50.3579 44.9061 50.2327C45.3182 49.976 45.6346 49.6295 45.8573 49.1933L46.1987 49.3331C46.0571 49.8925 45.8115 50.3579 45.4618 50.7336C45.1121 51.1093 44.6938 51.3911 44.2088 51.5768C43.7218 51.7647 43.2076 51.8586 42.6623 51.8586ZM51.6937 51.8586C51.267 51.8586 50.9319 51.75 50.6904 51.5351C50.449 51.318 50.2783 51.0237 50.1805 50.648C50.0181 51.0112 49.8017 51.3034 49.531 51.5247C49.2605 51.748 48.9129 51.8586 48.4862 51.8586C48.1885 51.8586 47.9075 51.8022 47.6411 51.6895C47.3747 51.5789 47.1332 51.4099 46.9188 51.1865C46.6795 50.9298 46.4984 50.6272 46.3798 50.2807C46.259 49.9342 46.1987 49.5815 46.1987 49.2225C46.1987 49.0076 46.2216 48.7926 46.2653 48.5818C46.413 47.9619 46.6815 47.4589 47.0708 47.0707C47.4621 46.6825 47.9221 46.3444 48.455 46.0563C48.7276 45.904 49.017 45.7537 49.3208 45.6034C49.8454 45.355 50.3407 45.0754 50.807 44.7686C51.2711 44.4618 51.6063 44.086 51.8103 43.6457V49.6692C51.8103 49.8779 51.8248 50.049 51.8581 50.1826C51.8914 50.3183 51.956 50.4164 52.0558 50.4832C52.1558 50.5479 52.3015 50.5813 52.493 50.5813C52.6865 50.5813 52.853 50.5228 52.9863 50.406C53.1195 50.2891 53.2236 50.145 53.2964 49.9697C53.3693 49.7944 53.413 49.6107 53.4255 49.4187H53.975C53.9083 49.9572 53.7876 50.3851 53.6086 50.7023C53.4608 50.9757 53.2818 51.2053 53.0716 51.3931C52.7302 51.7041 52.2703 51.8586 51.6937 51.8586ZM49.0045 50.598C49.1148 50.598 49.2334 50.5688 49.3646 50.5061C49.5664 50.4018 49.7101 50.2432 49.7933 50.0365C49.8766 49.8278 49.9182 49.6128 49.9182 49.3874V46.1482L49.5893 46.336C49.094 46.622 48.738 46.9267 48.5215 47.2481C48.2426 47.6676 48.1011 48.2437 48.1011 48.9783C48.1011 49.5815 48.2323 50.0407 48.4924 50.3538C48.6256 50.5166 48.7963 50.598 49.0045 50.598ZM53.7788 55.9253C53.5394 55.9253 53.3329 55.9053 53.1586 55.8641C52.9847 55.8231 52.8432 55.7781 52.7364 55.7313C52.6278 55.6838 52.5542 55.6382 52.5188 55.5986C52.4824 55.5578 52.46 55.5199 52.4513 55.4867C52.5884 55.4867 52.7538 55.4797 52.9519 55.4675C53.1499 55.4553 53.3373 55.4246 53.5155 55.3714C53.6942 55.318 53.8771 55.2375 54.0639 55.1302C54.2514 55.0225 54.4178 54.8921 54.5622 54.7336C54.8443 54.4238 55.012 53.965 55.0584 53.3619C55.1909 51.639 55.1172 50.9206 55.1172 49.1903C55.1172 48.9858 55.1607 48.8199 55.2499 48.694C55.3391 48.5682 55.4545 48.4634 55.5959 48.3795C55.7352 48.2957 55.8897 48.217 56.0594 48.1419C56.251 48.0598 56.4381 47.9636 56.6187 47.8518C56.7993 47.7417 56.9582 47.5932 57.0931 47.4097V51.371C57.4544 51.3675 57.7939 51.3431 58.1138 51.2976C58.4315 51.2504 58.7188 51.1491 58.9734 50.9918C59.3738 50.7367 59.574 50.4064 59.574 50.0046C59.574 49.3807 59.1453 48.708 58.2922 47.9881C57.6633 47.4552 56.9212 46.9572 56.066 46.4924C55.7047 46.3019 55.3718 46.0922 55.0649 45.8633C54.6275 45.5383 54.4099 45.1958 54.4099 44.8341C54.4099 44.5982 54.4882 44.3833 54.6449 44.1858C54.8016 43.9901 54.9975 43.8084 55.2281 43.6389C55.4588 43.4695 55.6917 43.3122 55.9267 43.1654L56.277 42.94C56.1443 43.0658 56.0203 43.2038 55.9006 43.3523C55.7809 43.5009 55.7221 43.6599 55.7221 43.8311C55.7221 44.0863 55.9223 44.3536 56.3206 44.6297C56.6274 44.8446 57.0018 45.077 57.4435 45.3251C57.8135 45.5331 58.2008 45.7655 58.6034 46.0188C59.0082 46.2739 59.4064 46.5588 59.796 46.8768C60.0941 47.1197 60.3683 47.3765 60.6185 47.6491C61.167 48.2572 61.4412 48.8513 61.4412 49.4314C61.4412 49.5782 61.4238 49.725 61.3911 49.8718C61.2845 50.3051 60.9798 50.6861 60.4793 51.0128C59.8874 51.399 59.1388 51.6681 58.2335 51.8218C57.8396 51.8725 57.4587 51.8987 57.0931 51.8987C57.0931 53.0242 56.737 54.5651 55.9898 55.2141C55.7318 55.4382 55.4027 55.5773 55.054 55.6964C54.5997 55.8516 54.1727 55.9253 53.7788 55.9253ZM67.6662 51.8586C67.2395 51.8586 66.9044 51.75 66.663 51.5351C66.4215 51.318 66.2508 51.0237 66.153 50.648C65.9907 51.0112 65.7742 51.3034 65.5036 51.5247C65.233 51.748 64.8854 51.8586 64.4587 51.8586C64.161 51.8586 63.8801 51.8022 63.6136 51.6895C63.3472 51.5789 63.1058 51.4099 62.8914 51.1865C62.652 50.9298 62.4709 50.6272 62.3523 50.2807C62.2316 49.9342 62.1712 49.5815 62.1712 49.2225C62.1712 49.0076 62.1941 48.7926 62.2378 48.5818C62.3856 47.9619 62.6541 47.4589 63.0433 47.0707C63.4346 46.6825 63.8946 46.3444 64.4275 46.0563C64.7002 45.904 64.9895 45.7537 65.2934 45.6034C65.8179 45.355 66.3133 45.0754 66.7795 44.7686C67.2437 44.4618 67.5788 44.086 67.7828 43.6457V49.6692C67.7828 49.8779 67.7974 50.049 67.8306 50.1826C67.864 50.3183 67.9285 50.4164 68.0284 50.4832C68.1283 50.5479 68.274 50.5813 68.4655 50.5813C68.6591 50.5813 68.8256 50.5228 68.9588 50.406C69.092 50.2891 69.1961 50.145 69.2689 49.9697C69.3418 49.7944 69.3855 49.6107 69.398 49.4187H69.9475C69.8809 49.9572 69.7602 50.3851 69.5811 50.7023C69.4334 50.9757 69.2543 51.2053 69.0442 51.3931C68.7028 51.7041 68.2428 51.8586 67.6662 51.8586ZM64.977 50.598C65.0873 50.598 65.2059 50.5688 65.3371 50.5061C65.539 50.4018 65.6826 50.2432 65.7659 50.0365C65.8491 49.8278 65.8907 49.6128 65.8907 49.3874V46.1482L65.5619 46.336C65.0665 46.622 64.7105 46.9267 64.4941 47.2481C64.2152 47.6676 64.0736 48.2437 64.0736 48.9783C64.0736 49.5815 64.2048 50.0407 64.465 50.3538C64.5982 50.5166 64.7688 50.598 64.977 50.598ZM69.9412 41.6877C70.2876 41.6877 70.6622 41.7531 71.0592 41.8869C71.3607 41.9864 71.6285 42.1217 71.8663 42.2926C72.0967 42.4696 72.2802 42.6985 72.4188 42.9779C72.5555 43.2588 72.6491 43.5546 72.6997 43.8683C72.7596 44.2949 72.7877 44.6932 72.7877 45.0619V45.1273L72.7933 45.5152V49.3607C72.7933 49.5836 72.8495 49.7976 72.9619 50.0028C73.0724 50.2064 73.254 50.3595 73.5069 50.4621C73.6641 50.523 73.8158 50.5528 73.9619 50.5528C74.1079 50.5528 74.2578 50.523 74.4132 50.4621C74.6641 50.3595 74.8477 50.2064 74.9601 50.0028C75.0743 49.7976 75.1305 49.5836 75.1305 49.3607V44.9965C75.1305 44.8226 75.1698 44.6813 75.2466 44.5743C75.3234 44.4673 75.4226 44.3781 75.5425 44.3068C75.6623 44.2354 75.7971 44.167 75.9432 44.1031C76.108 44.0347 76.2672 43.9515 76.4226 43.8579C76.5781 43.7627 76.7148 43.6379 76.8328 43.4818C76.8328 46.9363 76.8365 48.8196 76.8477 49.1332C76.8552 49.4156 76.9039 49.7233 76.9901 50.0563C77.0781 50.3907 77.2391 50.6791 77.4732 50.9229C77.7073 51.1666 78.0481 51.296 78.4938 51.3108C78.8497 51.3108 79.1455 51.2499 79.3853 51.1265C79.625 51.0031 79.8048 50.8456 79.9265 50.6553C80.0463 50.465 80.1081 50.2703 80.1081 50.0697C80.1081 49.8289 80.0164 49.6104 79.8347 49.4142C79.655 49.2179 79.3796 49.0975 79.0107 49.0515C78.9508 49.0455 78.8946 49.0425 78.8403 49.0425C78.6718 49.0425 78.507 49.0693 78.3459 49.1228C78.1849 49.1763 78.0388 49.2581 77.9077 49.3696C77.8234 49.215 77.7804 49.0708 77.7804 48.937C77.7804 48.7512 77.8459 48.5892 77.9788 48.4479C78.1099 48.3067 78.2841 48.1968 78.4995 48.1195C78.7149 48.0407 78.9452 48.002 79.1905 48.002C79.4358 48.002 79.6793 48.0466 79.9208 48.1358C80.1624 48.2265 80.374 48.3707 80.5576 48.5698C80.7392 48.769 80.8722 49.0277 80.9527 49.3473C80.9733 49.4513 80.9845 49.5554 80.9845 49.6609C80.9845 49.8437 80.9584 50.0191 80.9021 50.1871C80.7168 50.7222 80.3497 51.1429 79.8048 51.4505C79.2598 51.7582 78.6661 51.9113 78.0219 51.9113C77.4844 51.9113 76.9901 51.8028 76.5406 51.5858C76.0144 51.3123 75.6361 50.9526 75.4057 50.5052C75.0574 50.691 74.7147 50.853 74.3758 50.9912C74.0387 51.1295 73.7465 51.2677 73.5012 51.4074C73.2559 51.5457 73.0986 51.7077 73.0293 51.8905C72.4806 51.5888 72.0686 51.2974 71.7933 51.0165C71.5161 50.7371 71.3307 50.4323 71.239 50.1053C71.1453 49.7768 71.0966 49.3874 71.0929 48.937C71.0929 48.769 71.1004 48.5996 71.1154 48.4286V45.5152L71.1041 44.9578C71.1041 44.5773 71.091 44.2146 71.0648 43.8683C71.0217 43.3584 70.8794 42.969 70.6379 42.7014C70.5124 42.5676 70.37 42.4562 70.209 42.364C70.0479 42.2733 69.8906 42.205 69.7371 42.1589C69.5835 42.1143 69.4206 42.0875 69.2502 42.0771C69.0779 42.0667 68.9356 42.0608 68.8213 42.0608C68.8288 42.0325 68.8475 41.9998 68.8794 41.9656C68.9112 41.9315 68.973 41.8928 69.0666 41.8526C69.1584 41.8125 69.2783 41.7739 69.4243 41.7397C69.5722 41.704 69.7427 41.6877 69.9412 41.6877Z" fill="#A67C36"/>
</g>
</svg>
