<svg width="21" height="20" viewBox="0 0 21 20" fill="none" xmlns="http://www.w3.org/2000/svg">
<g id="phone">
<path id="Vector" d="M18.3806 14.1V16.6C18.3815 16.8321 18.334 17.0618 18.241 17.2744C18.148 17.4871 18.0116 17.678 17.8406 17.8349C17.6696 17.9918 17.4677 18.1112 17.2479 18.1856C17.028 18.2599 16.795 18.2875 16.5639 18.2666C13.9996 17.988 11.5364 17.1118 9.37223 15.7083C7.35875 14.4289 5.65167 12.7218 4.37223 10.7083C2.96387 8.53432 2.08743 6.05914 1.81389 3.48331C1.79307 3.25287 1.82046 3.02061 1.89431 2.80133C1.96816 2.58205 2.08687 2.38055 2.24286 2.20966C2.39886 2.03877 2.58873 1.90224 2.80039 1.80875C3.01204 1.71526 3.24084 1.66686 3.47223 1.66665H5.97223C6.37665 1.66267 6.76872 1.80588 7.07536 2.06959C7.382 2.3333 7.58229 2.69952 7.63889 3.09998C7.74441 3.90003 7.9401 4.68558 8.22223 5.44165C8.33435 5.73992 8.35861 6.06407 8.29215 6.37571C8.22569 6.68735 8.07128 6.9734 7.84723 7.19998L6.78889 8.25831C7.97519 10.3446 9.7026 12.072 11.7889 13.2583L12.8472 12.2C13.0738 11.9759 13.3599 11.8215 13.6715 11.7551C13.9831 11.6886 14.3073 11.7129 14.6056 11.825C15.3616 12.1071 16.1472 12.3028 16.9472 12.4083C17.352 12.4654 17.7217 12.6693 17.986 12.9812C18.2503 13.2931 18.3907 13.6913 18.3806 14.1Z" stroke="white" stroke-width="1.5" stroke-linecap="round" stroke-linejoin="round"/>
</g>
</svg>
